M48
; DRILL file {KiCad 7.0.2-0} date 2023 May 03, Wednesday 08:43:10
; FORMAT={-:-/ absolute / inch / decimal}
; #@! TF.CreationDate,2023-05-03T08:43:10+07:00
; #@! TF.GenerationSoftware,Kicad,Pcbnew,7.0.2-0
; #@! TF.FileFunction,Plated,1,2,PTH
FMAT,2
INCH
; #@! TA.AperFunction,Plated,PTH,ViaDrill
T1C0.0157
; #@! TA.AperFunction,Plated,PTH,ComponentDrill
T2C0.0276
; #@! TA.AperFunction,Plated,PTH,ComponentDrill
T3C0.0295
; #@! TA.AperFunction,Plated,PTH,ComponentDrill
T4C0.0300
; #@! TA.AperFunction,Plated,PTH,ComponentDrill
T5C0.0320
; #@! TA.AperFunction,Plated,PTH,ComponentDrill
T6C0.0354
; #@! TA.AperFunction,Plated,PTH,ComponentDrill
T7C0.0394
; #@! TA.AperFunction,Plated,PTH,ComponentDrill
T8C0.0402
; #@! TA.AperFunction,Plated,PTH,ComponentDrill
T9C0.0945
; #@! TA.AperFunction,Plated,PTH,ComponentDrill
T10C0.1378
%
G90
G05
T1
X1.42Y-5.36
X4.36Y-6.16
X4.5Y-4.34
X4.6Y-1.84
X4.74Y-1.86
X5.0Y-2.92
X5.0Y-3.82
X5.12Y-3.88
X5.16Y-2.66
X5.2Y-2.72
X5.38Y-1.84
X5.44Y-1.86
X5.62Y-3.1
X5.68Y-3.66
X5.72Y-3.66
X5.76Y-3.66
X6.04Y-3.44
X6.44Y-3.54
X7.8Y-4.8
X8.66Y-4.16
X8.68Y-4.24
X8.74Y-3.94
X8.82Y-3.78
X9.08Y-3.46
X9.16Y-3.42
X9.18Y-4.4
X9.24Y-3.36
X9.26Y-3.58
X9.26Y-4.38
X9.3Y-3.3
X9.36Y-3.5
X9.46Y-3.42
X9.52Y-3.34
X9.72Y-4.74
T2
X6.575Y-4.375
X6.675Y-4.375
T3
X5.675Y-4.375
X5.725Y-4.375
X5.775Y-4.375
T4
X7.425Y-3.65
X7.425Y-3.75
X7.425Y-3.85
X7.425Y-3.95
X7.425Y-4.05
X7.425Y-4.15
X7.425Y-4.25
X7.425Y-4.35
X7.425Y-4.45
X7.425Y-4.55
X7.425Y-4.65
X7.425Y-4.75
X7.425Y-4.85
X7.425Y-4.95
X7.425Y-5.05
X8.525Y-3.65
X8.525Y-3.75
X8.525Y-3.85
X8.525Y-3.95
X8.525Y-4.05
X8.525Y-4.15
X8.525Y-4.25
X8.525Y-4.35
X8.525Y-4.45
X8.525Y-4.55
X8.525Y-4.65
X8.525Y-4.75
X8.525Y-4.85
X8.525Y-4.95
X8.525Y-5.05
T5
X10.1Y-2.76
X10.1Y-3.06
X10.2Y-2.76
X10.2Y-3.06
X10.3Y-2.76
X10.3Y-3.06
X10.4Y-2.76
X10.4Y-3.06
X10.5Y-2.76
X10.5Y-3.06
X10.6Y-2.76
X10.6Y-3.06
X10.7Y-2.76
X10.7Y-3.06
X10.8Y-2.76
X10.8Y-3.06
T6
X9.0508Y-4.7138
X9.1508Y-4.7138
T7
X5.24Y-3.0
X5.24Y-3.1
X5.24Y-3.2
X5.24Y-3.3
X5.24Y-3.4
X5.24Y-3.5
X5.24Y-3.6
X5.24Y-3.7
X5.44Y-3.05
X5.44Y-3.15
X5.44Y-3.25
X5.44Y-3.35
X5.44Y-3.45
X5.44Y-3.55
X5.44Y-3.65
X6.75Y-2.075
X6.85Y-2.075
X6.95Y-2.075
X7.05Y-2.075
X7.15Y-2.075
X7.25Y-2.075
X7.35Y-2.075
X7.45Y-2.075
X7.55Y-2.075
X7.65Y-2.075
X7.75Y-2.075
X7.85Y-2.075
X7.95Y-2.075
X8.05Y-2.075
X8.15Y-2.075
X8.25Y-2.075
X11.0224Y-0.9333
X11.0224Y-1.0907
X11.0224Y-1.3663
X11.0224Y-1.5238
T8
X10.2657Y-4.75
X10.2657Y-4.85
X10.2657Y-4.95
X10.2657Y-5.05
T9
X6.65Y-5.087
X6.65Y-5.587
T10
X6.4555Y-0.5789
X6.4555Y-2.0356
X10.9831Y-0.5789
X10.9831Y-2.0356
T0
M30
