%TF.GenerationSoftware,KiCad,Pcbnew,7.0.2-0*%
%TF.CreationDate,2023-05-03T08:41:48+07:00*%
%TF.ProjectId,robot1,726f626f-7431-42e6-9b69-6361645f7063,rev?*%
%TF.SameCoordinates,Original*%
%TF.FileFunction,Legend,Top*%
%TF.FilePolarity,Positive*%
%FSLAX46Y46*%
G04 Gerber Fmt 4.6, Leading zero omitted, Abs format (unit mm)*
G04 Created by KiCad (PCBNEW 7.0.2-0) date 2023-05-03 08:41:48*
%MOMM*%
%LPD*%
G01*
G04 APERTURE LIST*
%ADD10C,0.150000*%
%ADD11C,0.120000*%
%ADD12C,0.127000*%
%ADD13C,0.152400*%
%ADD14C,1.524000*%
G04 APERTURE END LIST*
D10*
%TO.C,U6*%
X126938619Y-85851904D02*
X127748142Y-85851904D01*
X127748142Y-85851904D02*
X127843380Y-85804285D01*
X127843380Y-85804285D02*
X127891000Y-85756666D01*
X127891000Y-85756666D02*
X127938619Y-85661428D01*
X127938619Y-85661428D02*
X127938619Y-85470952D01*
X127938619Y-85470952D02*
X127891000Y-85375714D01*
X127891000Y-85375714D02*
X127843380Y-85328095D01*
X127843380Y-85328095D02*
X127748142Y-85280476D01*
X127748142Y-85280476D02*
X126938619Y-85280476D01*
X126938619Y-84375714D02*
X126938619Y-84566190D01*
X126938619Y-84566190D02*
X126986238Y-84661428D01*
X126986238Y-84661428D02*
X127033857Y-84709047D01*
X127033857Y-84709047D02*
X127176714Y-84804285D01*
X127176714Y-84804285D02*
X127367190Y-84851904D01*
X127367190Y-84851904D02*
X127748142Y-84851904D01*
X127748142Y-84851904D02*
X127843380Y-84804285D01*
X127843380Y-84804285D02*
X127891000Y-84756666D01*
X127891000Y-84756666D02*
X127938619Y-84661428D01*
X127938619Y-84661428D02*
X127938619Y-84470952D01*
X127938619Y-84470952D02*
X127891000Y-84375714D01*
X127891000Y-84375714D02*
X127843380Y-84328095D01*
X127843380Y-84328095D02*
X127748142Y-84280476D01*
X127748142Y-84280476D02*
X127510047Y-84280476D01*
X127510047Y-84280476D02*
X127414809Y-84328095D01*
X127414809Y-84328095D02*
X127367190Y-84375714D01*
X127367190Y-84375714D02*
X127319571Y-84470952D01*
X127319571Y-84470952D02*
X127319571Y-84661428D01*
X127319571Y-84661428D02*
X127367190Y-84756666D01*
X127367190Y-84756666D02*
X127414809Y-84804285D01*
X127414809Y-84804285D02*
X127510047Y-84851904D01*
%TO.C,U4*%
X263529049Y-144707350D02*
X264338994Y-144707350D01*
X264338994Y-144707350D02*
X264434282Y-144659707D01*
X264434282Y-144659707D02*
X264481926Y-144612063D01*
X264481926Y-144612063D02*
X264529569Y-144516775D01*
X264529569Y-144516775D02*
X264529569Y-144326200D01*
X264529569Y-144326200D02*
X264481926Y-144230912D01*
X264481926Y-144230912D02*
X264434282Y-144183269D01*
X264434282Y-144183269D02*
X264338994Y-144135625D01*
X264338994Y-144135625D02*
X263529049Y-144135625D01*
X263862556Y-143230392D02*
X264529569Y-143230392D01*
X263481406Y-143468611D02*
X264196063Y-143706830D01*
X264196063Y-143706830D02*
X264196063Y-143087461D01*
%TO.C,U3*%
X279918095Y-55577619D02*
X279918095Y-56387142D01*
X279918095Y-56387142D02*
X279965714Y-56482380D01*
X279965714Y-56482380D02*
X280013333Y-56530000D01*
X280013333Y-56530000D02*
X280108571Y-56577619D01*
X280108571Y-56577619D02*
X280299047Y-56577619D01*
X280299047Y-56577619D02*
X280394285Y-56530000D01*
X280394285Y-56530000D02*
X280441904Y-56482380D01*
X280441904Y-56482380D02*
X280489523Y-56387142D01*
X280489523Y-56387142D02*
X280489523Y-55577619D01*
X280870476Y-55577619D02*
X281489523Y-55577619D01*
X281489523Y-55577619D02*
X281156190Y-55958571D01*
X281156190Y-55958571D02*
X281299047Y-55958571D01*
X281299047Y-55958571D02*
X281394285Y-56006190D01*
X281394285Y-56006190D02*
X281441904Y-56053809D01*
X281441904Y-56053809D02*
X281489523Y-56149047D01*
X281489523Y-56149047D02*
X281489523Y-56387142D01*
X281489523Y-56387142D02*
X281441904Y-56482380D01*
X281441904Y-56482380D02*
X281394285Y-56530000D01*
X281394285Y-56530000D02*
X281299047Y-56577619D01*
X281299047Y-56577619D02*
X281013333Y-56577619D01*
X281013333Y-56577619D02*
X280918095Y-56530000D01*
X280918095Y-56530000D02*
X280870476Y-56482380D01*
%TO.C,U2*%
X201803095Y-112492619D02*
X201803095Y-113302142D01*
X201803095Y-113302142D02*
X201850714Y-113397380D01*
X201850714Y-113397380D02*
X201898333Y-113445000D01*
X201898333Y-113445000D02*
X201993571Y-113492619D01*
X201993571Y-113492619D02*
X202184047Y-113492619D01*
X202184047Y-113492619D02*
X202279285Y-113445000D01*
X202279285Y-113445000D02*
X202326904Y-113397380D01*
X202326904Y-113397380D02*
X202374523Y-113302142D01*
X202374523Y-113302142D02*
X202374523Y-112492619D01*
X202803095Y-112587857D02*
X202850714Y-112540238D01*
X202850714Y-112540238D02*
X202945952Y-112492619D01*
X202945952Y-112492619D02*
X203184047Y-112492619D01*
X203184047Y-112492619D02*
X203279285Y-112540238D01*
X203279285Y-112540238D02*
X203326904Y-112587857D01*
X203326904Y-112587857D02*
X203374523Y-112683095D01*
X203374523Y-112683095D02*
X203374523Y-112778333D01*
X203374523Y-112778333D02*
X203326904Y-112921190D01*
X203326904Y-112921190D02*
X202755476Y-113492619D01*
X202755476Y-113492619D02*
X203374523Y-113492619D01*
X190039762Y-127732619D02*
X190373095Y-128732619D01*
X190373095Y-128732619D02*
X190706428Y-127732619D01*
X191039762Y-128732619D02*
X191039762Y-127732619D01*
X191515952Y-128732619D02*
X191515952Y-127732619D01*
X191515952Y-127732619D02*
X192087380Y-128732619D01*
X192087380Y-128732619D02*
X192087380Y-127732619D01*
X191396904Y-125240238D02*
X191301666Y-125192619D01*
X191301666Y-125192619D02*
X191158809Y-125192619D01*
X191158809Y-125192619D02*
X191015952Y-125240238D01*
X191015952Y-125240238D02*
X190920714Y-125335476D01*
X190920714Y-125335476D02*
X190873095Y-125430714D01*
X190873095Y-125430714D02*
X190825476Y-125621190D01*
X190825476Y-125621190D02*
X190825476Y-125764047D01*
X190825476Y-125764047D02*
X190873095Y-125954523D01*
X190873095Y-125954523D02*
X190920714Y-126049761D01*
X190920714Y-126049761D02*
X191015952Y-126145000D01*
X191015952Y-126145000D02*
X191158809Y-126192619D01*
X191158809Y-126192619D02*
X191254047Y-126192619D01*
X191254047Y-126192619D02*
X191396904Y-126145000D01*
X191396904Y-126145000D02*
X191444523Y-126097380D01*
X191444523Y-126097380D02*
X191444523Y-125764047D01*
X191444523Y-125764047D02*
X191254047Y-125764047D01*
X190587380Y-123652619D02*
X190254047Y-123176428D01*
X190015952Y-123652619D02*
X190015952Y-122652619D01*
X190015952Y-122652619D02*
X190396904Y-122652619D01*
X190396904Y-122652619D02*
X190492142Y-122700238D01*
X190492142Y-122700238D02*
X190539761Y-122747857D01*
X190539761Y-122747857D02*
X190587380Y-122843095D01*
X190587380Y-122843095D02*
X190587380Y-122985952D01*
X190587380Y-122985952D02*
X190539761Y-123081190D01*
X190539761Y-123081190D02*
X190492142Y-123128809D01*
X190492142Y-123128809D02*
X190396904Y-123176428D01*
X190396904Y-123176428D02*
X190015952Y-123176428D01*
X190968333Y-123605000D02*
X191111190Y-123652619D01*
X191111190Y-123652619D02*
X191349285Y-123652619D01*
X191349285Y-123652619D02*
X191444523Y-123605000D01*
X191444523Y-123605000D02*
X191492142Y-123557380D01*
X191492142Y-123557380D02*
X191539761Y-123462142D01*
X191539761Y-123462142D02*
X191539761Y-123366904D01*
X191539761Y-123366904D02*
X191492142Y-123271666D01*
X191492142Y-123271666D02*
X191444523Y-123224047D01*
X191444523Y-123224047D02*
X191349285Y-123176428D01*
X191349285Y-123176428D02*
X191158809Y-123128809D01*
X191158809Y-123128809D02*
X191063571Y-123081190D01*
X191063571Y-123081190D02*
X191015952Y-123033571D01*
X191015952Y-123033571D02*
X190968333Y-122938333D01*
X190968333Y-122938333D02*
X190968333Y-122843095D01*
X190968333Y-122843095D02*
X191015952Y-122747857D01*
X191015952Y-122747857D02*
X191063571Y-122700238D01*
X191063571Y-122700238D02*
X191158809Y-122652619D01*
X191158809Y-122652619D02*
X191396904Y-122652619D01*
X191396904Y-122652619D02*
X191539761Y-122700238D01*
X191825476Y-122652619D02*
X192396904Y-122652619D01*
X192111190Y-123652619D02*
X192111190Y-122652619D01*
X190396905Y-120588809D02*
X190730238Y-120588809D01*
X190873095Y-121112619D02*
X190396905Y-121112619D01*
X190396905Y-121112619D02*
X190396905Y-120112619D01*
X190396905Y-120112619D02*
X190873095Y-120112619D01*
X191301667Y-121112619D02*
X191301667Y-120112619D01*
X191301667Y-120112619D02*
X191873095Y-121112619D01*
X191873095Y-121112619D02*
X191873095Y-120112619D01*
X190373095Y-117572619D02*
X190992142Y-117572619D01*
X190992142Y-117572619D02*
X190658809Y-117953571D01*
X190658809Y-117953571D02*
X190801666Y-117953571D01*
X190801666Y-117953571D02*
X190896904Y-118001190D01*
X190896904Y-118001190D02*
X190944523Y-118048809D01*
X190944523Y-118048809D02*
X190992142Y-118144047D01*
X190992142Y-118144047D02*
X190992142Y-118382142D01*
X190992142Y-118382142D02*
X190944523Y-118477380D01*
X190944523Y-118477380D02*
X190896904Y-118525000D01*
X190896904Y-118525000D02*
X190801666Y-118572619D01*
X190801666Y-118572619D02*
X190515952Y-118572619D01*
X190515952Y-118572619D02*
X190420714Y-118525000D01*
X190420714Y-118525000D02*
X190373095Y-118477380D01*
X191277857Y-117572619D02*
X191611190Y-118572619D01*
X191611190Y-118572619D02*
X191944523Y-117572619D01*
X191396904Y-115080238D02*
X191301666Y-115032619D01*
X191301666Y-115032619D02*
X191158809Y-115032619D01*
X191158809Y-115032619D02*
X191015952Y-115080238D01*
X191015952Y-115080238D02*
X190920714Y-115175476D01*
X190920714Y-115175476D02*
X190873095Y-115270714D01*
X190873095Y-115270714D02*
X190825476Y-115461190D01*
X190825476Y-115461190D02*
X190825476Y-115604047D01*
X190825476Y-115604047D02*
X190873095Y-115794523D01*
X190873095Y-115794523D02*
X190920714Y-115889761D01*
X190920714Y-115889761D02*
X191015952Y-115985000D01*
X191015952Y-115985000D02*
X191158809Y-116032619D01*
X191158809Y-116032619D02*
X191254047Y-116032619D01*
X191254047Y-116032619D02*
X191396904Y-115985000D01*
X191396904Y-115985000D02*
X191444523Y-115937380D01*
X191444523Y-115937380D02*
X191444523Y-115604047D01*
X191444523Y-115604047D02*
X191254047Y-115604047D01*
X190349286Y-113445000D02*
X190492143Y-113492619D01*
X190492143Y-113492619D02*
X190730238Y-113492619D01*
X190730238Y-113492619D02*
X190825476Y-113445000D01*
X190825476Y-113445000D02*
X190873095Y-113397380D01*
X190873095Y-113397380D02*
X190920714Y-113302142D01*
X190920714Y-113302142D02*
X190920714Y-113206904D01*
X190920714Y-113206904D02*
X190873095Y-113111666D01*
X190873095Y-113111666D02*
X190825476Y-113064047D01*
X190825476Y-113064047D02*
X190730238Y-113016428D01*
X190730238Y-113016428D02*
X190539762Y-112968809D01*
X190539762Y-112968809D02*
X190444524Y-112921190D01*
X190444524Y-112921190D02*
X190396905Y-112873571D01*
X190396905Y-112873571D02*
X190349286Y-112778333D01*
X190349286Y-112778333D02*
X190349286Y-112683095D01*
X190349286Y-112683095D02*
X190396905Y-112587857D01*
X190396905Y-112587857D02*
X190444524Y-112540238D01*
X190444524Y-112540238D02*
X190539762Y-112492619D01*
X190539762Y-112492619D02*
X190777857Y-112492619D01*
X190777857Y-112492619D02*
X190920714Y-112540238D01*
X191349286Y-113492619D02*
X191349286Y-112492619D01*
X191920714Y-113492619D02*
X191492143Y-112921190D01*
X191920714Y-112492619D02*
X191349286Y-113064047D01*
X190325476Y-110905000D02*
X190468333Y-110952619D01*
X190468333Y-110952619D02*
X190706428Y-110952619D01*
X190706428Y-110952619D02*
X190801666Y-110905000D01*
X190801666Y-110905000D02*
X190849285Y-110857380D01*
X190849285Y-110857380D02*
X190896904Y-110762142D01*
X190896904Y-110762142D02*
X190896904Y-110666904D01*
X190896904Y-110666904D02*
X190849285Y-110571666D01*
X190849285Y-110571666D02*
X190801666Y-110524047D01*
X190801666Y-110524047D02*
X190706428Y-110476428D01*
X190706428Y-110476428D02*
X190515952Y-110428809D01*
X190515952Y-110428809D02*
X190420714Y-110381190D01*
X190420714Y-110381190D02*
X190373095Y-110333571D01*
X190373095Y-110333571D02*
X190325476Y-110238333D01*
X190325476Y-110238333D02*
X190325476Y-110143095D01*
X190325476Y-110143095D02*
X190373095Y-110047857D01*
X190373095Y-110047857D02*
X190420714Y-110000238D01*
X190420714Y-110000238D02*
X190515952Y-109952619D01*
X190515952Y-109952619D02*
X190754047Y-109952619D01*
X190754047Y-109952619D02*
X190896904Y-110000238D01*
X191515952Y-109952619D02*
X191706428Y-109952619D01*
X191706428Y-109952619D02*
X191801666Y-110000238D01*
X191801666Y-110000238D02*
X191896904Y-110095476D01*
X191896904Y-110095476D02*
X191944523Y-110285952D01*
X191944523Y-110285952D02*
X191944523Y-110619285D01*
X191944523Y-110619285D02*
X191896904Y-110809761D01*
X191896904Y-110809761D02*
X191801666Y-110905000D01*
X191801666Y-110905000D02*
X191706428Y-110952619D01*
X191706428Y-110952619D02*
X191515952Y-110952619D01*
X191515952Y-110952619D02*
X191420714Y-110905000D01*
X191420714Y-110905000D02*
X191325476Y-110809761D01*
X191325476Y-110809761D02*
X191277857Y-110619285D01*
X191277857Y-110619285D02*
X191277857Y-110285952D01*
X191277857Y-110285952D02*
X191325476Y-110095476D01*
X191325476Y-110095476D02*
X191420714Y-110000238D01*
X191420714Y-110000238D02*
X191515952Y-109952619D01*
X190349286Y-108365000D02*
X190492143Y-108412619D01*
X190492143Y-108412619D02*
X190730238Y-108412619D01*
X190730238Y-108412619D02*
X190825476Y-108365000D01*
X190825476Y-108365000D02*
X190873095Y-108317380D01*
X190873095Y-108317380D02*
X190920714Y-108222142D01*
X190920714Y-108222142D02*
X190920714Y-108126904D01*
X190920714Y-108126904D02*
X190873095Y-108031666D01*
X190873095Y-108031666D02*
X190825476Y-107984047D01*
X190825476Y-107984047D02*
X190730238Y-107936428D01*
X190730238Y-107936428D02*
X190539762Y-107888809D01*
X190539762Y-107888809D02*
X190444524Y-107841190D01*
X190444524Y-107841190D02*
X190396905Y-107793571D01*
X190396905Y-107793571D02*
X190349286Y-107698333D01*
X190349286Y-107698333D02*
X190349286Y-107603095D01*
X190349286Y-107603095D02*
X190396905Y-107507857D01*
X190396905Y-107507857D02*
X190444524Y-107460238D01*
X190444524Y-107460238D02*
X190539762Y-107412619D01*
X190539762Y-107412619D02*
X190777857Y-107412619D01*
X190777857Y-107412619D02*
X190920714Y-107460238D01*
X191920714Y-108317380D02*
X191873095Y-108365000D01*
X191873095Y-108365000D02*
X191730238Y-108412619D01*
X191730238Y-108412619D02*
X191635000Y-108412619D01*
X191635000Y-108412619D02*
X191492143Y-108365000D01*
X191492143Y-108365000D02*
X191396905Y-108269761D01*
X191396905Y-108269761D02*
X191349286Y-108174523D01*
X191349286Y-108174523D02*
X191301667Y-107984047D01*
X191301667Y-107984047D02*
X191301667Y-107841190D01*
X191301667Y-107841190D02*
X191349286Y-107650714D01*
X191349286Y-107650714D02*
X191396905Y-107555476D01*
X191396905Y-107555476D02*
X191492143Y-107460238D01*
X191492143Y-107460238D02*
X191635000Y-107412619D01*
X191635000Y-107412619D02*
X191730238Y-107412619D01*
X191730238Y-107412619D02*
X191873095Y-107460238D01*
X191873095Y-107460238D02*
X191920714Y-107507857D01*
X190373095Y-105825000D02*
X190515952Y-105872619D01*
X190515952Y-105872619D02*
X190754047Y-105872619D01*
X190754047Y-105872619D02*
X190849285Y-105825000D01*
X190849285Y-105825000D02*
X190896904Y-105777380D01*
X190896904Y-105777380D02*
X190944523Y-105682142D01*
X190944523Y-105682142D02*
X190944523Y-105586904D01*
X190944523Y-105586904D02*
X190896904Y-105491666D01*
X190896904Y-105491666D02*
X190849285Y-105444047D01*
X190849285Y-105444047D02*
X190754047Y-105396428D01*
X190754047Y-105396428D02*
X190563571Y-105348809D01*
X190563571Y-105348809D02*
X190468333Y-105301190D01*
X190468333Y-105301190D02*
X190420714Y-105253571D01*
X190420714Y-105253571D02*
X190373095Y-105158333D01*
X190373095Y-105158333D02*
X190373095Y-105063095D01*
X190373095Y-105063095D02*
X190420714Y-104967857D01*
X190420714Y-104967857D02*
X190468333Y-104920238D01*
X190468333Y-104920238D02*
X190563571Y-104872619D01*
X190563571Y-104872619D02*
X190801666Y-104872619D01*
X190801666Y-104872619D02*
X190944523Y-104920238D01*
X191896904Y-105872619D02*
X191325476Y-105872619D01*
X191611190Y-105872619D02*
X191611190Y-104872619D01*
X191611190Y-104872619D02*
X191515952Y-105015476D01*
X191515952Y-105015476D02*
X191420714Y-105110714D01*
X191420714Y-105110714D02*
X191325476Y-105158333D01*
X190373095Y-103285000D02*
X190515952Y-103332619D01*
X190515952Y-103332619D02*
X190754047Y-103332619D01*
X190754047Y-103332619D02*
X190849285Y-103285000D01*
X190849285Y-103285000D02*
X190896904Y-103237380D01*
X190896904Y-103237380D02*
X190944523Y-103142142D01*
X190944523Y-103142142D02*
X190944523Y-103046904D01*
X190944523Y-103046904D02*
X190896904Y-102951666D01*
X190896904Y-102951666D02*
X190849285Y-102904047D01*
X190849285Y-102904047D02*
X190754047Y-102856428D01*
X190754047Y-102856428D02*
X190563571Y-102808809D01*
X190563571Y-102808809D02*
X190468333Y-102761190D01*
X190468333Y-102761190D02*
X190420714Y-102713571D01*
X190420714Y-102713571D02*
X190373095Y-102618333D01*
X190373095Y-102618333D02*
X190373095Y-102523095D01*
X190373095Y-102523095D02*
X190420714Y-102427857D01*
X190420714Y-102427857D02*
X190468333Y-102380238D01*
X190468333Y-102380238D02*
X190563571Y-102332619D01*
X190563571Y-102332619D02*
X190801666Y-102332619D01*
X190801666Y-102332619D02*
X190944523Y-102380238D01*
X191325476Y-102427857D02*
X191373095Y-102380238D01*
X191373095Y-102380238D02*
X191468333Y-102332619D01*
X191468333Y-102332619D02*
X191706428Y-102332619D01*
X191706428Y-102332619D02*
X191801666Y-102380238D01*
X191801666Y-102380238D02*
X191849285Y-102427857D01*
X191849285Y-102427857D02*
X191896904Y-102523095D01*
X191896904Y-102523095D02*
X191896904Y-102618333D01*
X191896904Y-102618333D02*
X191849285Y-102761190D01*
X191849285Y-102761190D02*
X191277857Y-103332619D01*
X191277857Y-103332619D02*
X191896904Y-103332619D01*
X190373095Y-100745000D02*
X190515952Y-100792619D01*
X190515952Y-100792619D02*
X190754047Y-100792619D01*
X190754047Y-100792619D02*
X190849285Y-100745000D01*
X190849285Y-100745000D02*
X190896904Y-100697380D01*
X190896904Y-100697380D02*
X190944523Y-100602142D01*
X190944523Y-100602142D02*
X190944523Y-100506904D01*
X190944523Y-100506904D02*
X190896904Y-100411666D01*
X190896904Y-100411666D02*
X190849285Y-100364047D01*
X190849285Y-100364047D02*
X190754047Y-100316428D01*
X190754047Y-100316428D02*
X190563571Y-100268809D01*
X190563571Y-100268809D02*
X190468333Y-100221190D01*
X190468333Y-100221190D02*
X190420714Y-100173571D01*
X190420714Y-100173571D02*
X190373095Y-100078333D01*
X190373095Y-100078333D02*
X190373095Y-99983095D01*
X190373095Y-99983095D02*
X190420714Y-99887857D01*
X190420714Y-99887857D02*
X190468333Y-99840238D01*
X190468333Y-99840238D02*
X190563571Y-99792619D01*
X190563571Y-99792619D02*
X190801666Y-99792619D01*
X190801666Y-99792619D02*
X190944523Y-99840238D01*
X191277857Y-99792619D02*
X191896904Y-99792619D01*
X191896904Y-99792619D02*
X191563571Y-100173571D01*
X191563571Y-100173571D02*
X191706428Y-100173571D01*
X191706428Y-100173571D02*
X191801666Y-100221190D01*
X191801666Y-100221190D02*
X191849285Y-100268809D01*
X191849285Y-100268809D02*
X191896904Y-100364047D01*
X191896904Y-100364047D02*
X191896904Y-100602142D01*
X191896904Y-100602142D02*
X191849285Y-100697380D01*
X191849285Y-100697380D02*
X191801666Y-100745000D01*
X191801666Y-100745000D02*
X191706428Y-100792619D01*
X191706428Y-100792619D02*
X191420714Y-100792619D01*
X191420714Y-100792619D02*
X191325476Y-100745000D01*
X191325476Y-100745000D02*
X191277857Y-100697380D01*
X190277857Y-97252619D02*
X190611190Y-98252619D01*
X190611190Y-98252619D02*
X190944523Y-97252619D01*
X191277857Y-97252619D02*
X191277857Y-98062142D01*
X191277857Y-98062142D02*
X191325476Y-98157380D01*
X191325476Y-98157380D02*
X191373095Y-98205000D01*
X191373095Y-98205000D02*
X191468333Y-98252619D01*
X191468333Y-98252619D02*
X191658809Y-98252619D01*
X191658809Y-98252619D02*
X191754047Y-98205000D01*
X191754047Y-98205000D02*
X191801666Y-98157380D01*
X191801666Y-98157380D02*
X191849285Y-98062142D01*
X191849285Y-98062142D02*
X191849285Y-97252619D01*
X191396904Y-94760238D02*
X191301666Y-94712619D01*
X191301666Y-94712619D02*
X191158809Y-94712619D01*
X191158809Y-94712619D02*
X191015952Y-94760238D01*
X191015952Y-94760238D02*
X190920714Y-94855476D01*
X190920714Y-94855476D02*
X190873095Y-94950714D01*
X190873095Y-94950714D02*
X190825476Y-95141190D01*
X190825476Y-95141190D02*
X190825476Y-95284047D01*
X190825476Y-95284047D02*
X190873095Y-95474523D01*
X190873095Y-95474523D02*
X190920714Y-95569761D01*
X190920714Y-95569761D02*
X191015952Y-95665000D01*
X191015952Y-95665000D02*
X191158809Y-95712619D01*
X191158809Y-95712619D02*
X191254047Y-95712619D01*
X191254047Y-95712619D02*
X191396904Y-95665000D01*
X191396904Y-95665000D02*
X191444523Y-95617380D01*
X191444523Y-95617380D02*
X191444523Y-95284047D01*
X191444523Y-95284047D02*
X191254047Y-95284047D01*
X190420714Y-92886904D02*
X190896904Y-92886904D01*
X190325476Y-93172619D02*
X190658809Y-92172619D01*
X190658809Y-92172619D02*
X190992142Y-93172619D01*
X191515952Y-92172619D02*
X191611190Y-92172619D01*
X191611190Y-92172619D02*
X191706428Y-92220238D01*
X191706428Y-92220238D02*
X191754047Y-92267857D01*
X191754047Y-92267857D02*
X191801666Y-92363095D01*
X191801666Y-92363095D02*
X191849285Y-92553571D01*
X191849285Y-92553571D02*
X191849285Y-92791666D01*
X191849285Y-92791666D02*
X191801666Y-92982142D01*
X191801666Y-92982142D02*
X191754047Y-93077380D01*
X191754047Y-93077380D02*
X191706428Y-93125000D01*
X191706428Y-93125000D02*
X191611190Y-93172619D01*
X191611190Y-93172619D02*
X191515952Y-93172619D01*
X191515952Y-93172619D02*
X191420714Y-93125000D01*
X191420714Y-93125000D02*
X191373095Y-93077380D01*
X191373095Y-93077380D02*
X191325476Y-92982142D01*
X191325476Y-92982142D02*
X191277857Y-92791666D01*
X191277857Y-92791666D02*
X191277857Y-92553571D01*
X191277857Y-92553571D02*
X191325476Y-92363095D01*
X191325476Y-92363095D02*
X191373095Y-92267857D01*
X191373095Y-92267857D02*
X191420714Y-92220238D01*
X191420714Y-92220238D02*
X191515952Y-92172619D01*
X213233095Y-127732619D02*
X213852142Y-127732619D01*
X213852142Y-127732619D02*
X213518809Y-128113571D01*
X213518809Y-128113571D02*
X213661666Y-128113571D01*
X213661666Y-128113571D02*
X213756904Y-128161190D01*
X213756904Y-128161190D02*
X213804523Y-128208809D01*
X213804523Y-128208809D02*
X213852142Y-128304047D01*
X213852142Y-128304047D02*
X213852142Y-128542142D01*
X213852142Y-128542142D02*
X213804523Y-128637380D01*
X213804523Y-128637380D02*
X213756904Y-128685000D01*
X213756904Y-128685000D02*
X213661666Y-128732619D01*
X213661666Y-128732619D02*
X213375952Y-128732619D01*
X213375952Y-128732619D02*
X213280714Y-128685000D01*
X213280714Y-128685000D02*
X213233095Y-128637380D01*
X214137857Y-127732619D02*
X214471190Y-128732619D01*
X214471190Y-128732619D02*
X214804523Y-127732619D01*
X214256904Y-125240238D02*
X214161666Y-125192619D01*
X214161666Y-125192619D02*
X214018809Y-125192619D01*
X214018809Y-125192619D02*
X213875952Y-125240238D01*
X213875952Y-125240238D02*
X213780714Y-125335476D01*
X213780714Y-125335476D02*
X213733095Y-125430714D01*
X213733095Y-125430714D02*
X213685476Y-125621190D01*
X213685476Y-125621190D02*
X213685476Y-125764047D01*
X213685476Y-125764047D02*
X213733095Y-125954523D01*
X213733095Y-125954523D02*
X213780714Y-126049761D01*
X213780714Y-126049761D02*
X213875952Y-126145000D01*
X213875952Y-126145000D02*
X214018809Y-126192619D01*
X214018809Y-126192619D02*
X214114047Y-126192619D01*
X214114047Y-126192619D02*
X214256904Y-126145000D01*
X214256904Y-126145000D02*
X214304523Y-126097380D01*
X214304523Y-126097380D02*
X214304523Y-125764047D01*
X214304523Y-125764047D02*
X214114047Y-125764047D01*
X213233095Y-122652619D02*
X213804523Y-122652619D01*
X213518809Y-123652619D02*
X213518809Y-122652619D01*
X214042619Y-122652619D02*
X214709285Y-123652619D01*
X214709285Y-122652619D02*
X214042619Y-123652619D01*
X213828333Y-121112619D02*
X213495000Y-120636428D01*
X213256905Y-121112619D02*
X213256905Y-120112619D01*
X213256905Y-120112619D02*
X213637857Y-120112619D01*
X213637857Y-120112619D02*
X213733095Y-120160238D01*
X213733095Y-120160238D02*
X213780714Y-120207857D01*
X213780714Y-120207857D02*
X213828333Y-120303095D01*
X213828333Y-120303095D02*
X213828333Y-120445952D01*
X213828333Y-120445952D02*
X213780714Y-120541190D01*
X213780714Y-120541190D02*
X213733095Y-120588809D01*
X213733095Y-120588809D02*
X213637857Y-120636428D01*
X213637857Y-120636428D02*
X213256905Y-120636428D01*
X214161667Y-120112619D02*
X214828333Y-121112619D01*
X214828333Y-120112619D02*
X214161667Y-121112619D01*
X213256905Y-118572619D02*
X213256905Y-117572619D01*
X213256905Y-117572619D02*
X213495000Y-117572619D01*
X213495000Y-117572619D02*
X213637857Y-117620238D01*
X213637857Y-117620238D02*
X213733095Y-117715476D01*
X213733095Y-117715476D02*
X213780714Y-117810714D01*
X213780714Y-117810714D02*
X213828333Y-118001190D01*
X213828333Y-118001190D02*
X213828333Y-118144047D01*
X213828333Y-118144047D02*
X213780714Y-118334523D01*
X213780714Y-118334523D02*
X213733095Y-118429761D01*
X213733095Y-118429761D02*
X213637857Y-118525000D01*
X213637857Y-118525000D02*
X213495000Y-118572619D01*
X213495000Y-118572619D02*
X213256905Y-118572619D01*
X214399762Y-118001190D02*
X214304524Y-117953571D01*
X214304524Y-117953571D02*
X214256905Y-117905952D01*
X214256905Y-117905952D02*
X214209286Y-117810714D01*
X214209286Y-117810714D02*
X214209286Y-117763095D01*
X214209286Y-117763095D02*
X214256905Y-117667857D01*
X214256905Y-117667857D02*
X214304524Y-117620238D01*
X214304524Y-117620238D02*
X214399762Y-117572619D01*
X214399762Y-117572619D02*
X214590238Y-117572619D01*
X214590238Y-117572619D02*
X214685476Y-117620238D01*
X214685476Y-117620238D02*
X214733095Y-117667857D01*
X214733095Y-117667857D02*
X214780714Y-117763095D01*
X214780714Y-117763095D02*
X214780714Y-117810714D01*
X214780714Y-117810714D02*
X214733095Y-117905952D01*
X214733095Y-117905952D02*
X214685476Y-117953571D01*
X214685476Y-117953571D02*
X214590238Y-118001190D01*
X214590238Y-118001190D02*
X214399762Y-118001190D01*
X214399762Y-118001190D02*
X214304524Y-118048809D01*
X214304524Y-118048809D02*
X214256905Y-118096428D01*
X214256905Y-118096428D02*
X214209286Y-118191666D01*
X214209286Y-118191666D02*
X214209286Y-118382142D01*
X214209286Y-118382142D02*
X214256905Y-118477380D01*
X214256905Y-118477380D02*
X214304524Y-118525000D01*
X214304524Y-118525000D02*
X214399762Y-118572619D01*
X214399762Y-118572619D02*
X214590238Y-118572619D01*
X214590238Y-118572619D02*
X214685476Y-118525000D01*
X214685476Y-118525000D02*
X214733095Y-118477380D01*
X214733095Y-118477380D02*
X214780714Y-118382142D01*
X214780714Y-118382142D02*
X214780714Y-118191666D01*
X214780714Y-118191666D02*
X214733095Y-118096428D01*
X214733095Y-118096428D02*
X214685476Y-118048809D01*
X214685476Y-118048809D02*
X214590238Y-118001190D01*
X213256905Y-116032619D02*
X213256905Y-115032619D01*
X213256905Y-115032619D02*
X213495000Y-115032619D01*
X213495000Y-115032619D02*
X213637857Y-115080238D01*
X213637857Y-115080238D02*
X213733095Y-115175476D01*
X213733095Y-115175476D02*
X213780714Y-115270714D01*
X213780714Y-115270714D02*
X213828333Y-115461190D01*
X213828333Y-115461190D02*
X213828333Y-115604047D01*
X213828333Y-115604047D02*
X213780714Y-115794523D01*
X213780714Y-115794523D02*
X213733095Y-115889761D01*
X213733095Y-115889761D02*
X213637857Y-115985000D01*
X213637857Y-115985000D02*
X213495000Y-116032619D01*
X213495000Y-116032619D02*
X213256905Y-116032619D01*
X214161667Y-115032619D02*
X214828333Y-115032619D01*
X214828333Y-115032619D02*
X214399762Y-116032619D01*
X213256905Y-113492619D02*
X213256905Y-112492619D01*
X213256905Y-112492619D02*
X213495000Y-112492619D01*
X213495000Y-112492619D02*
X213637857Y-112540238D01*
X213637857Y-112540238D02*
X213733095Y-112635476D01*
X213733095Y-112635476D02*
X213780714Y-112730714D01*
X213780714Y-112730714D02*
X213828333Y-112921190D01*
X213828333Y-112921190D02*
X213828333Y-113064047D01*
X213828333Y-113064047D02*
X213780714Y-113254523D01*
X213780714Y-113254523D02*
X213733095Y-113349761D01*
X213733095Y-113349761D02*
X213637857Y-113445000D01*
X213637857Y-113445000D02*
X213495000Y-113492619D01*
X213495000Y-113492619D02*
X213256905Y-113492619D01*
X214685476Y-112492619D02*
X214495000Y-112492619D01*
X214495000Y-112492619D02*
X214399762Y-112540238D01*
X214399762Y-112540238D02*
X214352143Y-112587857D01*
X214352143Y-112587857D02*
X214256905Y-112730714D01*
X214256905Y-112730714D02*
X214209286Y-112921190D01*
X214209286Y-112921190D02*
X214209286Y-113302142D01*
X214209286Y-113302142D02*
X214256905Y-113397380D01*
X214256905Y-113397380D02*
X214304524Y-113445000D01*
X214304524Y-113445000D02*
X214399762Y-113492619D01*
X214399762Y-113492619D02*
X214590238Y-113492619D01*
X214590238Y-113492619D02*
X214685476Y-113445000D01*
X214685476Y-113445000D02*
X214733095Y-113397380D01*
X214733095Y-113397380D02*
X214780714Y-113302142D01*
X214780714Y-113302142D02*
X214780714Y-113064047D01*
X214780714Y-113064047D02*
X214733095Y-112968809D01*
X214733095Y-112968809D02*
X214685476Y-112921190D01*
X214685476Y-112921190D02*
X214590238Y-112873571D01*
X214590238Y-112873571D02*
X214399762Y-112873571D01*
X214399762Y-112873571D02*
X214304524Y-112921190D01*
X214304524Y-112921190D02*
X214256905Y-112968809D01*
X214256905Y-112968809D02*
X214209286Y-113064047D01*
X213256905Y-110952619D02*
X213256905Y-109952619D01*
X213256905Y-109952619D02*
X213495000Y-109952619D01*
X213495000Y-109952619D02*
X213637857Y-110000238D01*
X213637857Y-110000238D02*
X213733095Y-110095476D01*
X213733095Y-110095476D02*
X213780714Y-110190714D01*
X213780714Y-110190714D02*
X213828333Y-110381190D01*
X213828333Y-110381190D02*
X213828333Y-110524047D01*
X213828333Y-110524047D02*
X213780714Y-110714523D01*
X213780714Y-110714523D02*
X213733095Y-110809761D01*
X213733095Y-110809761D02*
X213637857Y-110905000D01*
X213637857Y-110905000D02*
X213495000Y-110952619D01*
X213495000Y-110952619D02*
X213256905Y-110952619D01*
X214733095Y-109952619D02*
X214256905Y-109952619D01*
X214256905Y-109952619D02*
X214209286Y-110428809D01*
X214209286Y-110428809D02*
X214256905Y-110381190D01*
X214256905Y-110381190D02*
X214352143Y-110333571D01*
X214352143Y-110333571D02*
X214590238Y-110333571D01*
X214590238Y-110333571D02*
X214685476Y-110381190D01*
X214685476Y-110381190D02*
X214733095Y-110428809D01*
X214733095Y-110428809D02*
X214780714Y-110524047D01*
X214780714Y-110524047D02*
X214780714Y-110762142D01*
X214780714Y-110762142D02*
X214733095Y-110857380D01*
X214733095Y-110857380D02*
X214685476Y-110905000D01*
X214685476Y-110905000D02*
X214590238Y-110952619D01*
X214590238Y-110952619D02*
X214352143Y-110952619D01*
X214352143Y-110952619D02*
X214256905Y-110905000D01*
X214256905Y-110905000D02*
X214209286Y-110857380D01*
X214256904Y-107460238D02*
X214161666Y-107412619D01*
X214161666Y-107412619D02*
X214018809Y-107412619D01*
X214018809Y-107412619D02*
X213875952Y-107460238D01*
X213875952Y-107460238D02*
X213780714Y-107555476D01*
X213780714Y-107555476D02*
X213733095Y-107650714D01*
X213733095Y-107650714D02*
X213685476Y-107841190D01*
X213685476Y-107841190D02*
X213685476Y-107984047D01*
X213685476Y-107984047D02*
X213733095Y-108174523D01*
X213733095Y-108174523D02*
X213780714Y-108269761D01*
X213780714Y-108269761D02*
X213875952Y-108365000D01*
X213875952Y-108365000D02*
X214018809Y-108412619D01*
X214018809Y-108412619D02*
X214114047Y-108412619D01*
X214114047Y-108412619D02*
X214256904Y-108365000D01*
X214256904Y-108365000D02*
X214304523Y-108317380D01*
X214304523Y-108317380D02*
X214304523Y-107984047D01*
X214304523Y-107984047D02*
X214114047Y-107984047D01*
X213233095Y-104872619D02*
X213852142Y-104872619D01*
X213852142Y-104872619D02*
X213518809Y-105253571D01*
X213518809Y-105253571D02*
X213661666Y-105253571D01*
X213661666Y-105253571D02*
X213756904Y-105301190D01*
X213756904Y-105301190D02*
X213804523Y-105348809D01*
X213804523Y-105348809D02*
X213852142Y-105444047D01*
X213852142Y-105444047D02*
X213852142Y-105682142D01*
X213852142Y-105682142D02*
X213804523Y-105777380D01*
X213804523Y-105777380D02*
X213756904Y-105825000D01*
X213756904Y-105825000D02*
X213661666Y-105872619D01*
X213661666Y-105872619D02*
X213375952Y-105872619D01*
X213375952Y-105872619D02*
X213280714Y-105825000D01*
X213280714Y-105825000D02*
X213233095Y-105777380D01*
X214137857Y-104872619D02*
X214471190Y-105872619D01*
X214471190Y-105872619D02*
X214804523Y-104872619D01*
X213256905Y-103332619D02*
X213256905Y-102332619D01*
X213256905Y-102332619D02*
X213495000Y-102332619D01*
X213495000Y-102332619D02*
X213637857Y-102380238D01*
X213637857Y-102380238D02*
X213733095Y-102475476D01*
X213733095Y-102475476D02*
X213780714Y-102570714D01*
X213780714Y-102570714D02*
X213828333Y-102761190D01*
X213828333Y-102761190D02*
X213828333Y-102904047D01*
X213828333Y-102904047D02*
X213780714Y-103094523D01*
X213780714Y-103094523D02*
X213733095Y-103189761D01*
X213733095Y-103189761D02*
X213637857Y-103285000D01*
X213637857Y-103285000D02*
X213495000Y-103332619D01*
X213495000Y-103332619D02*
X213256905Y-103332619D01*
X214685476Y-102665952D02*
X214685476Y-103332619D01*
X214447381Y-102285000D02*
X214209286Y-102999285D01*
X214209286Y-102999285D02*
X214828333Y-102999285D01*
X213256905Y-100792619D02*
X213256905Y-99792619D01*
X213256905Y-99792619D02*
X213495000Y-99792619D01*
X213495000Y-99792619D02*
X213637857Y-99840238D01*
X213637857Y-99840238D02*
X213733095Y-99935476D01*
X213733095Y-99935476D02*
X213780714Y-100030714D01*
X213780714Y-100030714D02*
X213828333Y-100221190D01*
X213828333Y-100221190D02*
X213828333Y-100364047D01*
X213828333Y-100364047D02*
X213780714Y-100554523D01*
X213780714Y-100554523D02*
X213733095Y-100649761D01*
X213733095Y-100649761D02*
X213637857Y-100745000D01*
X213637857Y-100745000D02*
X213495000Y-100792619D01*
X213495000Y-100792619D02*
X213256905Y-100792619D01*
X214161667Y-99792619D02*
X214780714Y-99792619D01*
X214780714Y-99792619D02*
X214447381Y-100173571D01*
X214447381Y-100173571D02*
X214590238Y-100173571D01*
X214590238Y-100173571D02*
X214685476Y-100221190D01*
X214685476Y-100221190D02*
X214733095Y-100268809D01*
X214733095Y-100268809D02*
X214780714Y-100364047D01*
X214780714Y-100364047D02*
X214780714Y-100602142D01*
X214780714Y-100602142D02*
X214733095Y-100697380D01*
X214733095Y-100697380D02*
X214685476Y-100745000D01*
X214685476Y-100745000D02*
X214590238Y-100792619D01*
X214590238Y-100792619D02*
X214304524Y-100792619D01*
X214304524Y-100792619D02*
X214209286Y-100745000D01*
X214209286Y-100745000D02*
X214161667Y-100697380D01*
X213256905Y-98252619D02*
X213256905Y-97252619D01*
X213256905Y-97252619D02*
X213495000Y-97252619D01*
X213495000Y-97252619D02*
X213637857Y-97300238D01*
X213637857Y-97300238D02*
X213733095Y-97395476D01*
X213733095Y-97395476D02*
X213780714Y-97490714D01*
X213780714Y-97490714D02*
X213828333Y-97681190D01*
X213828333Y-97681190D02*
X213828333Y-97824047D01*
X213828333Y-97824047D02*
X213780714Y-98014523D01*
X213780714Y-98014523D02*
X213733095Y-98109761D01*
X213733095Y-98109761D02*
X213637857Y-98205000D01*
X213637857Y-98205000D02*
X213495000Y-98252619D01*
X213495000Y-98252619D02*
X213256905Y-98252619D01*
X214209286Y-97347857D02*
X214256905Y-97300238D01*
X214256905Y-97300238D02*
X214352143Y-97252619D01*
X214352143Y-97252619D02*
X214590238Y-97252619D01*
X214590238Y-97252619D02*
X214685476Y-97300238D01*
X214685476Y-97300238D02*
X214733095Y-97347857D01*
X214733095Y-97347857D02*
X214780714Y-97443095D01*
X214780714Y-97443095D02*
X214780714Y-97538333D01*
X214780714Y-97538333D02*
X214733095Y-97681190D01*
X214733095Y-97681190D02*
X214161667Y-98252619D01*
X214161667Y-98252619D02*
X214780714Y-98252619D01*
X213256905Y-95712619D02*
X213256905Y-94712619D01*
X213256905Y-94712619D02*
X213495000Y-94712619D01*
X213495000Y-94712619D02*
X213637857Y-94760238D01*
X213637857Y-94760238D02*
X213733095Y-94855476D01*
X213733095Y-94855476D02*
X213780714Y-94950714D01*
X213780714Y-94950714D02*
X213828333Y-95141190D01*
X213828333Y-95141190D02*
X213828333Y-95284047D01*
X213828333Y-95284047D02*
X213780714Y-95474523D01*
X213780714Y-95474523D02*
X213733095Y-95569761D01*
X213733095Y-95569761D02*
X213637857Y-95665000D01*
X213637857Y-95665000D02*
X213495000Y-95712619D01*
X213495000Y-95712619D02*
X213256905Y-95712619D01*
X214780714Y-95712619D02*
X214209286Y-95712619D01*
X214495000Y-95712619D02*
X214495000Y-94712619D01*
X214495000Y-94712619D02*
X214399762Y-94855476D01*
X214399762Y-94855476D02*
X214304524Y-94950714D01*
X214304524Y-94950714D02*
X214209286Y-94998333D01*
X213256905Y-93172619D02*
X213256905Y-92172619D01*
X213256905Y-92172619D02*
X213495000Y-92172619D01*
X213495000Y-92172619D02*
X213637857Y-92220238D01*
X213637857Y-92220238D02*
X213733095Y-92315476D01*
X213733095Y-92315476D02*
X213780714Y-92410714D01*
X213780714Y-92410714D02*
X213828333Y-92601190D01*
X213828333Y-92601190D02*
X213828333Y-92744047D01*
X213828333Y-92744047D02*
X213780714Y-92934523D01*
X213780714Y-92934523D02*
X213733095Y-93029761D01*
X213733095Y-93029761D02*
X213637857Y-93125000D01*
X213637857Y-93125000D02*
X213495000Y-93172619D01*
X213495000Y-93172619D02*
X213256905Y-93172619D01*
X214447381Y-92172619D02*
X214542619Y-92172619D01*
X214542619Y-92172619D02*
X214637857Y-92220238D01*
X214637857Y-92220238D02*
X214685476Y-92267857D01*
X214685476Y-92267857D02*
X214733095Y-92363095D01*
X214733095Y-92363095D02*
X214780714Y-92553571D01*
X214780714Y-92553571D02*
X214780714Y-92791666D01*
X214780714Y-92791666D02*
X214733095Y-92982142D01*
X214733095Y-92982142D02*
X214685476Y-93077380D01*
X214685476Y-93077380D02*
X214637857Y-93125000D01*
X214637857Y-93125000D02*
X214542619Y-93172619D01*
X214542619Y-93172619D02*
X214447381Y-93172619D01*
X214447381Y-93172619D02*
X214352143Y-93125000D01*
X214352143Y-93125000D02*
X214304524Y-93077380D01*
X214304524Y-93077380D02*
X214256905Y-92982142D01*
X214256905Y-92982142D02*
X214209286Y-92791666D01*
X214209286Y-92791666D02*
X214209286Y-92553571D01*
X214209286Y-92553571D02*
X214256905Y-92363095D01*
X214256905Y-92363095D02*
X214304524Y-92267857D01*
X214304524Y-92267857D02*
X214352143Y-92220238D01*
X214352143Y-92220238D02*
X214447381Y-92172619D01*
%TO.C,U1*%
X275818733Y-74812666D02*
X275818733Y-75946000D01*
X275818733Y-75946000D02*
X275885400Y-76079333D01*
X275885400Y-76079333D02*
X275952066Y-76146000D01*
X275952066Y-76146000D02*
X276085400Y-76212666D01*
X276085400Y-76212666D02*
X276352066Y-76212666D01*
X276352066Y-76212666D02*
X276485400Y-76146000D01*
X276485400Y-76146000D02*
X276552066Y-76079333D01*
X276552066Y-76079333D02*
X276618733Y-75946000D01*
X276618733Y-75946000D02*
X276618733Y-74812666D01*
X278018733Y-76212666D02*
X277218733Y-76212666D01*
X277618733Y-76212666D02*
X277618733Y-74812666D01*
X277618733Y-74812666D02*
X277485400Y-75012666D01*
X277485400Y-75012666D02*
X277352067Y-75146000D01*
X277352067Y-75146000D02*
X277218733Y-75212666D01*
%TO.C,R1*%
X168108333Y-109667619D02*
X167775000Y-109191428D01*
X167536905Y-109667619D02*
X167536905Y-108667619D01*
X167536905Y-108667619D02*
X167917857Y-108667619D01*
X167917857Y-108667619D02*
X168013095Y-108715238D01*
X168013095Y-108715238D02*
X168060714Y-108762857D01*
X168060714Y-108762857D02*
X168108333Y-108858095D01*
X168108333Y-108858095D02*
X168108333Y-109000952D01*
X168108333Y-109000952D02*
X168060714Y-109096190D01*
X168060714Y-109096190D02*
X168013095Y-109143809D01*
X168013095Y-109143809D02*
X167917857Y-109191428D01*
X167917857Y-109191428D02*
X167536905Y-109191428D01*
X169060714Y-109667619D02*
X168489286Y-109667619D01*
X168775000Y-109667619D02*
X168775000Y-108667619D01*
X168775000Y-108667619D02*
X168679762Y-108810476D01*
X168679762Y-108810476D02*
X168584524Y-108905714D01*
X168584524Y-108905714D02*
X168489286Y-108953333D01*
%TO.C,Q1*%
X145319761Y-108122857D02*
X145224523Y-108075238D01*
X145224523Y-108075238D02*
X145129285Y-107980000D01*
X145129285Y-107980000D02*
X144986428Y-107837142D01*
X144986428Y-107837142D02*
X144891190Y-107789523D01*
X144891190Y-107789523D02*
X144795952Y-107789523D01*
X144843571Y-108027619D02*
X144748333Y-107980000D01*
X144748333Y-107980000D02*
X144653095Y-107884761D01*
X144653095Y-107884761D02*
X144605476Y-107694285D01*
X144605476Y-107694285D02*
X144605476Y-107360952D01*
X144605476Y-107360952D02*
X144653095Y-107170476D01*
X144653095Y-107170476D02*
X144748333Y-107075238D01*
X144748333Y-107075238D02*
X144843571Y-107027619D01*
X144843571Y-107027619D02*
X145034047Y-107027619D01*
X145034047Y-107027619D02*
X145129285Y-107075238D01*
X145129285Y-107075238D02*
X145224523Y-107170476D01*
X145224523Y-107170476D02*
X145272142Y-107360952D01*
X145272142Y-107360952D02*
X145272142Y-107694285D01*
X145272142Y-107694285D02*
X145224523Y-107884761D01*
X145224523Y-107884761D02*
X145129285Y-107980000D01*
X145129285Y-107980000D02*
X145034047Y-108027619D01*
X145034047Y-108027619D02*
X144843571Y-108027619D01*
X146224523Y-108027619D02*
X145653095Y-108027619D01*
X145938809Y-108027619D02*
X145938809Y-107027619D01*
X145938809Y-107027619D02*
X145843571Y-107170476D01*
X145843571Y-107170476D02*
X145748333Y-107265714D01*
X145748333Y-107265714D02*
X145653095Y-107313333D01*
%TO.C,J4*%
X123069666Y-46924619D02*
X123069666Y-47638904D01*
X123069666Y-47638904D02*
X123022047Y-47781761D01*
X123022047Y-47781761D02*
X122926809Y-47877000D01*
X122926809Y-47877000D02*
X122783952Y-47924619D01*
X122783952Y-47924619D02*
X122688714Y-47924619D01*
X123974428Y-47257952D02*
X123974428Y-47924619D01*
X123736333Y-46877000D02*
X123498238Y-47591285D01*
X123498238Y-47591285D02*
X124117285Y-47591285D01*
X120593475Y-41900809D02*
X120260142Y-41900809D01*
X120260142Y-42424619D02*
X120260142Y-41424619D01*
X120260142Y-41424619D02*
X120736332Y-41424619D01*
X121593475Y-42424619D02*
X121117285Y-42424619D01*
X121117285Y-42424619D02*
X121117285Y-41424619D01*
X121688714Y-42519857D02*
X122450618Y-42519857D01*
X122688714Y-42424619D02*
X122688714Y-41757952D01*
X122688714Y-41853190D02*
X122736333Y-41805571D01*
X122736333Y-41805571D02*
X122831571Y-41757952D01*
X122831571Y-41757952D02*
X122974428Y-41757952D01*
X122974428Y-41757952D02*
X123069666Y-41805571D01*
X123069666Y-41805571D02*
X123117285Y-41900809D01*
X123117285Y-41900809D02*
X123117285Y-42424619D01*
X123117285Y-41900809D02*
X123164904Y-41805571D01*
X123164904Y-41805571D02*
X123260142Y-41757952D01*
X123260142Y-41757952D02*
X123402999Y-41757952D01*
X123402999Y-41757952D02*
X123498238Y-41805571D01*
X123498238Y-41805571D02*
X123545857Y-41900809D01*
X123545857Y-41900809D02*
X123545857Y-42424619D01*
X124164904Y-42424619D02*
X124069666Y-42377000D01*
X124069666Y-42377000D02*
X124022047Y-42329380D01*
X124022047Y-42329380D02*
X123974428Y-42234142D01*
X123974428Y-42234142D02*
X123974428Y-41948428D01*
X123974428Y-41948428D02*
X124022047Y-41853190D01*
X124022047Y-41853190D02*
X124069666Y-41805571D01*
X124069666Y-41805571D02*
X124164904Y-41757952D01*
X124164904Y-41757952D02*
X124307761Y-41757952D01*
X124307761Y-41757952D02*
X124402999Y-41805571D01*
X124402999Y-41805571D02*
X124450618Y-41853190D01*
X124450618Y-41853190D02*
X124498237Y-41948428D01*
X124498237Y-41948428D02*
X124498237Y-42234142D01*
X124498237Y-42234142D02*
X124450618Y-42329380D01*
X124450618Y-42329380D02*
X124402999Y-42377000D01*
X124402999Y-42377000D02*
X124307761Y-42424619D01*
X124307761Y-42424619D02*
X124164904Y-42424619D01*
X124783952Y-41757952D02*
X125164904Y-41757952D01*
X124926809Y-41424619D02*
X124926809Y-42281761D01*
X124926809Y-42281761D02*
X124974428Y-42377000D01*
X124974428Y-42377000D02*
X125069666Y-42424619D01*
X125069666Y-42424619D02*
X125164904Y-42424619D01*
X125641095Y-42424619D02*
X125545857Y-42377000D01*
X125545857Y-42377000D02*
X125498238Y-42329380D01*
X125498238Y-42329380D02*
X125450619Y-42234142D01*
X125450619Y-42234142D02*
X125450619Y-41948428D01*
X125450619Y-41948428D02*
X125498238Y-41853190D01*
X125498238Y-41853190D02*
X125545857Y-41805571D01*
X125545857Y-41805571D02*
X125641095Y-41757952D01*
X125641095Y-41757952D02*
X125783952Y-41757952D01*
X125783952Y-41757952D02*
X125879190Y-41805571D01*
X125879190Y-41805571D02*
X125926809Y-41853190D01*
X125926809Y-41853190D02*
X125974428Y-41948428D01*
X125974428Y-41948428D02*
X125974428Y-42234142D01*
X125974428Y-42234142D02*
X125926809Y-42329380D01*
X125926809Y-42329380D02*
X125879190Y-42377000D01*
X125879190Y-42377000D02*
X125783952Y-42424619D01*
X125783952Y-42424619D02*
X125641095Y-42424619D01*
X126403000Y-42424619D02*
X126403000Y-41757952D01*
X126403000Y-41948428D02*
X126450619Y-41853190D01*
X126450619Y-41853190D02*
X126498238Y-41805571D01*
X126498238Y-41805571D02*
X126593476Y-41757952D01*
X126593476Y-41757952D02*
X126688714Y-41757952D01*
%TO.C,J3*%
X141566666Y-41297619D02*
X141566666Y-42011904D01*
X141566666Y-42011904D02*
X141519047Y-42154761D01*
X141519047Y-42154761D02*
X141423809Y-42250000D01*
X141423809Y-42250000D02*
X141280952Y-42297619D01*
X141280952Y-42297619D02*
X141185714Y-42297619D01*
X141947619Y-41297619D02*
X142566666Y-41297619D01*
X142566666Y-41297619D02*
X142233333Y-41678571D01*
X142233333Y-41678571D02*
X142376190Y-41678571D01*
X142376190Y-41678571D02*
X142471428Y-41726190D01*
X142471428Y-41726190D02*
X142519047Y-41773809D01*
X142519047Y-41773809D02*
X142566666Y-41869047D01*
X142566666Y-41869047D02*
X142566666Y-42107142D01*
X142566666Y-42107142D02*
X142519047Y-42202380D01*
X142519047Y-42202380D02*
X142471428Y-42250000D01*
X142471428Y-42250000D02*
X142376190Y-42297619D01*
X142376190Y-42297619D02*
X142090476Y-42297619D01*
X142090476Y-42297619D02*
X141995238Y-42250000D01*
X141995238Y-42250000D02*
X141947619Y-42202380D01*
X138995237Y-47273809D02*
X138661904Y-47273809D01*
X138661904Y-47797619D02*
X138661904Y-46797619D01*
X138661904Y-46797619D02*
X139138094Y-46797619D01*
X140090475Y-47797619D02*
X139757142Y-47321428D01*
X139519047Y-47797619D02*
X139519047Y-46797619D01*
X139519047Y-46797619D02*
X139899999Y-46797619D01*
X139899999Y-46797619D02*
X139995237Y-46845238D01*
X139995237Y-46845238D02*
X140042856Y-46892857D01*
X140042856Y-46892857D02*
X140090475Y-46988095D01*
X140090475Y-46988095D02*
X140090475Y-47130952D01*
X140090475Y-47130952D02*
X140042856Y-47226190D01*
X140042856Y-47226190D02*
X139995237Y-47273809D01*
X139995237Y-47273809D02*
X139899999Y-47321428D01*
X139899999Y-47321428D02*
X139519047Y-47321428D01*
X140280952Y-47892857D02*
X141042856Y-47892857D01*
X141280952Y-47797619D02*
X141280952Y-47130952D01*
X141280952Y-47226190D02*
X141328571Y-47178571D01*
X141328571Y-47178571D02*
X141423809Y-47130952D01*
X141423809Y-47130952D02*
X141566666Y-47130952D01*
X141566666Y-47130952D02*
X141661904Y-47178571D01*
X141661904Y-47178571D02*
X141709523Y-47273809D01*
X141709523Y-47273809D02*
X141709523Y-47797619D01*
X141709523Y-47273809D02*
X141757142Y-47178571D01*
X141757142Y-47178571D02*
X141852380Y-47130952D01*
X141852380Y-47130952D02*
X141995237Y-47130952D01*
X141995237Y-47130952D02*
X142090476Y-47178571D01*
X142090476Y-47178571D02*
X142138095Y-47273809D01*
X142138095Y-47273809D02*
X142138095Y-47797619D01*
X142757142Y-47797619D02*
X142661904Y-47750000D01*
X142661904Y-47750000D02*
X142614285Y-47702380D01*
X142614285Y-47702380D02*
X142566666Y-47607142D01*
X142566666Y-47607142D02*
X142566666Y-47321428D01*
X142566666Y-47321428D02*
X142614285Y-47226190D01*
X142614285Y-47226190D02*
X142661904Y-47178571D01*
X142661904Y-47178571D02*
X142757142Y-47130952D01*
X142757142Y-47130952D02*
X142899999Y-47130952D01*
X142899999Y-47130952D02*
X142995237Y-47178571D01*
X142995237Y-47178571D02*
X143042856Y-47226190D01*
X143042856Y-47226190D02*
X143090475Y-47321428D01*
X143090475Y-47321428D02*
X143090475Y-47607142D01*
X143090475Y-47607142D02*
X143042856Y-47702380D01*
X143042856Y-47702380D02*
X142995237Y-47750000D01*
X142995237Y-47750000D02*
X142899999Y-47797619D01*
X142899999Y-47797619D02*
X142757142Y-47797619D01*
X143376190Y-47130952D02*
X143757142Y-47130952D01*
X143519047Y-46797619D02*
X143519047Y-47654761D01*
X143519047Y-47654761D02*
X143566666Y-47750000D01*
X143566666Y-47750000D02*
X143661904Y-47797619D01*
X143661904Y-47797619D02*
X143757142Y-47797619D01*
X144233333Y-47797619D02*
X144138095Y-47750000D01*
X144138095Y-47750000D02*
X144090476Y-47702380D01*
X144090476Y-47702380D02*
X144042857Y-47607142D01*
X144042857Y-47607142D02*
X144042857Y-47321428D01*
X144042857Y-47321428D02*
X144090476Y-47226190D01*
X144090476Y-47226190D02*
X144138095Y-47178571D01*
X144138095Y-47178571D02*
X144233333Y-47130952D01*
X144233333Y-47130952D02*
X144376190Y-47130952D01*
X144376190Y-47130952D02*
X144471428Y-47178571D01*
X144471428Y-47178571D02*
X144519047Y-47226190D01*
X144519047Y-47226190D02*
X144566666Y-47321428D01*
X144566666Y-47321428D02*
X144566666Y-47607142D01*
X144566666Y-47607142D02*
X144519047Y-47702380D01*
X144519047Y-47702380D02*
X144471428Y-47750000D01*
X144471428Y-47750000D02*
X144376190Y-47797619D01*
X144376190Y-47797619D02*
X144233333Y-47797619D01*
X144995238Y-47797619D02*
X144995238Y-47130952D01*
X144995238Y-47321428D02*
X145042857Y-47226190D01*
X145042857Y-47226190D02*
X145090476Y-47178571D01*
X145090476Y-47178571D02*
X145185714Y-47130952D01*
X145185714Y-47130952D02*
X145280952Y-47130952D01*
%TO.C,J2*%
X130816666Y-107702619D02*
X130816666Y-108416904D01*
X130816666Y-108416904D02*
X130769047Y-108559761D01*
X130769047Y-108559761D02*
X130673809Y-108655000D01*
X130673809Y-108655000D02*
X130530952Y-108702619D01*
X130530952Y-108702619D02*
X130435714Y-108702619D01*
X131245238Y-107797857D02*
X131292857Y-107750238D01*
X131292857Y-107750238D02*
X131388095Y-107702619D01*
X131388095Y-107702619D02*
X131626190Y-107702619D01*
X131626190Y-107702619D02*
X131721428Y-107750238D01*
X131721428Y-107750238D02*
X131769047Y-107797857D01*
X131769047Y-107797857D02*
X131816666Y-107893095D01*
X131816666Y-107893095D02*
X131816666Y-107988333D01*
X131816666Y-107988333D02*
X131769047Y-108131190D01*
X131769047Y-108131190D02*
X131197619Y-108702619D01*
X131197619Y-108702619D02*
X131816666Y-108702619D01*
X128602381Y-114202619D02*
X128602381Y-113535952D01*
X128602381Y-113631190D02*
X128650000Y-113583571D01*
X128650000Y-113583571D02*
X128745238Y-113535952D01*
X128745238Y-113535952D02*
X128888095Y-113535952D01*
X128888095Y-113535952D02*
X128983333Y-113583571D01*
X128983333Y-113583571D02*
X129030952Y-113678809D01*
X129030952Y-113678809D02*
X129030952Y-114202619D01*
X129030952Y-113678809D02*
X129078571Y-113583571D01*
X129078571Y-113583571D02*
X129173809Y-113535952D01*
X129173809Y-113535952D02*
X129316666Y-113535952D01*
X129316666Y-113535952D02*
X129411905Y-113583571D01*
X129411905Y-113583571D02*
X129459524Y-113678809D01*
X129459524Y-113678809D02*
X129459524Y-114202619D01*
X130078571Y-114202619D02*
X129983333Y-114155000D01*
X129983333Y-114155000D02*
X129935714Y-114107380D01*
X129935714Y-114107380D02*
X129888095Y-114012142D01*
X129888095Y-114012142D02*
X129888095Y-113726428D01*
X129888095Y-113726428D02*
X129935714Y-113631190D01*
X129935714Y-113631190D02*
X129983333Y-113583571D01*
X129983333Y-113583571D02*
X130078571Y-113535952D01*
X130078571Y-113535952D02*
X130221428Y-113535952D01*
X130221428Y-113535952D02*
X130316666Y-113583571D01*
X130316666Y-113583571D02*
X130364285Y-113631190D01*
X130364285Y-113631190D02*
X130411904Y-113726428D01*
X130411904Y-113726428D02*
X130411904Y-114012142D01*
X130411904Y-114012142D02*
X130364285Y-114107380D01*
X130364285Y-114107380D02*
X130316666Y-114155000D01*
X130316666Y-114155000D02*
X130221428Y-114202619D01*
X130221428Y-114202619D02*
X130078571Y-114202619D01*
X130697619Y-113535952D02*
X131078571Y-113535952D01*
X130840476Y-113202619D02*
X130840476Y-114059761D01*
X130840476Y-114059761D02*
X130888095Y-114155000D01*
X130888095Y-114155000D02*
X130983333Y-114202619D01*
X130983333Y-114202619D02*
X131078571Y-114202619D01*
X131554762Y-114202619D02*
X131459524Y-114155000D01*
X131459524Y-114155000D02*
X131411905Y-114107380D01*
X131411905Y-114107380D02*
X131364286Y-114012142D01*
X131364286Y-114012142D02*
X131364286Y-113726428D01*
X131364286Y-113726428D02*
X131411905Y-113631190D01*
X131411905Y-113631190D02*
X131459524Y-113583571D01*
X131459524Y-113583571D02*
X131554762Y-113535952D01*
X131554762Y-113535952D02*
X131697619Y-113535952D01*
X131697619Y-113535952D02*
X131792857Y-113583571D01*
X131792857Y-113583571D02*
X131840476Y-113631190D01*
X131840476Y-113631190D02*
X131888095Y-113726428D01*
X131888095Y-113726428D02*
X131888095Y-114012142D01*
X131888095Y-114012142D02*
X131840476Y-114107380D01*
X131840476Y-114107380D02*
X131792857Y-114155000D01*
X131792857Y-114155000D02*
X131697619Y-114202619D01*
X131697619Y-114202619D02*
X131554762Y-114202619D01*
X132316667Y-114202619D02*
X132316667Y-113535952D01*
X132316667Y-113726428D02*
X132364286Y-113631190D01*
X132364286Y-113631190D02*
X132411905Y-113583571D01*
X132411905Y-113583571D02*
X132507143Y-113535952D01*
X132507143Y-113535952D02*
X132602381Y-113535952D01*
X132935715Y-113821666D02*
X133697620Y-113821666D01*
%TO.C,J1*%
X118071666Y-107337619D02*
X118071666Y-108051904D01*
X118071666Y-108051904D02*
X118024047Y-108194761D01*
X118024047Y-108194761D02*
X117928809Y-108290000D01*
X117928809Y-108290000D02*
X117785952Y-108337619D01*
X117785952Y-108337619D02*
X117690714Y-108337619D01*
X119071666Y-108337619D02*
X118500238Y-108337619D01*
X118785952Y-108337619D02*
X118785952Y-107337619D01*
X118785952Y-107337619D02*
X118690714Y-107480476D01*
X118690714Y-107480476D02*
X118595476Y-107575714D01*
X118595476Y-107575714D02*
X118500238Y-107623333D01*
X115857381Y-113837619D02*
X115857381Y-113170952D01*
X115857381Y-113266190D02*
X115905000Y-113218571D01*
X115905000Y-113218571D02*
X116000238Y-113170952D01*
X116000238Y-113170952D02*
X116143095Y-113170952D01*
X116143095Y-113170952D02*
X116238333Y-113218571D01*
X116238333Y-113218571D02*
X116285952Y-113313809D01*
X116285952Y-113313809D02*
X116285952Y-113837619D01*
X116285952Y-113313809D02*
X116333571Y-113218571D01*
X116333571Y-113218571D02*
X116428809Y-113170952D01*
X116428809Y-113170952D02*
X116571666Y-113170952D01*
X116571666Y-113170952D02*
X116666905Y-113218571D01*
X116666905Y-113218571D02*
X116714524Y-113313809D01*
X116714524Y-113313809D02*
X116714524Y-113837619D01*
X117333571Y-113837619D02*
X117238333Y-113790000D01*
X117238333Y-113790000D02*
X117190714Y-113742380D01*
X117190714Y-113742380D02*
X117143095Y-113647142D01*
X117143095Y-113647142D02*
X117143095Y-113361428D01*
X117143095Y-113361428D02*
X117190714Y-113266190D01*
X117190714Y-113266190D02*
X117238333Y-113218571D01*
X117238333Y-113218571D02*
X117333571Y-113170952D01*
X117333571Y-113170952D02*
X117476428Y-113170952D01*
X117476428Y-113170952D02*
X117571666Y-113218571D01*
X117571666Y-113218571D02*
X117619285Y-113266190D01*
X117619285Y-113266190D02*
X117666904Y-113361428D01*
X117666904Y-113361428D02*
X117666904Y-113647142D01*
X117666904Y-113647142D02*
X117619285Y-113742380D01*
X117619285Y-113742380D02*
X117571666Y-113790000D01*
X117571666Y-113790000D02*
X117476428Y-113837619D01*
X117476428Y-113837619D02*
X117333571Y-113837619D01*
X117952619Y-113170952D02*
X118333571Y-113170952D01*
X118095476Y-112837619D02*
X118095476Y-113694761D01*
X118095476Y-113694761D02*
X118143095Y-113790000D01*
X118143095Y-113790000D02*
X118238333Y-113837619D01*
X118238333Y-113837619D02*
X118333571Y-113837619D01*
X118809762Y-113837619D02*
X118714524Y-113790000D01*
X118714524Y-113790000D02*
X118666905Y-113742380D01*
X118666905Y-113742380D02*
X118619286Y-113647142D01*
X118619286Y-113647142D02*
X118619286Y-113361428D01*
X118619286Y-113361428D02*
X118666905Y-113266190D01*
X118666905Y-113266190D02*
X118714524Y-113218571D01*
X118714524Y-113218571D02*
X118809762Y-113170952D01*
X118809762Y-113170952D02*
X118952619Y-113170952D01*
X118952619Y-113170952D02*
X119047857Y-113218571D01*
X119047857Y-113218571D02*
X119095476Y-113266190D01*
X119095476Y-113266190D02*
X119143095Y-113361428D01*
X119143095Y-113361428D02*
X119143095Y-113647142D01*
X119143095Y-113647142D02*
X119095476Y-113742380D01*
X119095476Y-113742380D02*
X119047857Y-113790000D01*
X119047857Y-113790000D02*
X118952619Y-113837619D01*
X118952619Y-113837619D02*
X118809762Y-113837619D01*
X119571667Y-113837619D02*
X119571667Y-113170952D01*
X119571667Y-113361428D02*
X119619286Y-113266190D01*
X119619286Y-113266190D02*
X119666905Y-113218571D01*
X119666905Y-113218571D02*
X119762143Y-113170952D01*
X119762143Y-113170952D02*
X119857381Y-113170952D01*
X120190715Y-113456666D02*
X120952620Y-113456666D01*
X120571667Y-113837619D02*
X120571667Y-113075714D01*
%TO.C,D1*%
X230421905Y-118232619D02*
X230421905Y-117232619D01*
X230421905Y-117232619D02*
X230660000Y-117232619D01*
X230660000Y-117232619D02*
X230802857Y-117280238D01*
X230802857Y-117280238D02*
X230898095Y-117375476D01*
X230898095Y-117375476D02*
X230945714Y-117470714D01*
X230945714Y-117470714D02*
X230993333Y-117661190D01*
X230993333Y-117661190D02*
X230993333Y-117804047D01*
X230993333Y-117804047D02*
X230945714Y-117994523D01*
X230945714Y-117994523D02*
X230898095Y-118089761D01*
X230898095Y-118089761D02*
X230802857Y-118185000D01*
X230802857Y-118185000D02*
X230660000Y-118232619D01*
X230660000Y-118232619D02*
X230421905Y-118232619D01*
X231945714Y-118232619D02*
X231374286Y-118232619D01*
X231660000Y-118232619D02*
X231660000Y-117232619D01*
X231660000Y-117232619D02*
X231564762Y-117375476D01*
X231564762Y-117375476D02*
X231469524Y-117470714D01*
X231469524Y-117470714D02*
X231374286Y-117518333D01*
%TO.C,BT6*%
X61484285Y-58542809D02*
X61627142Y-58590428D01*
X61627142Y-58590428D02*
X61674761Y-58638047D01*
X61674761Y-58638047D02*
X61722380Y-58733285D01*
X61722380Y-58733285D02*
X61722380Y-58876142D01*
X61722380Y-58876142D02*
X61674761Y-58971380D01*
X61674761Y-58971380D02*
X61627142Y-59019000D01*
X61627142Y-59019000D02*
X61531904Y-59066619D01*
X61531904Y-59066619D02*
X61150952Y-59066619D01*
X61150952Y-59066619D02*
X61150952Y-58066619D01*
X61150952Y-58066619D02*
X61484285Y-58066619D01*
X61484285Y-58066619D02*
X61579523Y-58114238D01*
X61579523Y-58114238D02*
X61627142Y-58161857D01*
X61627142Y-58161857D02*
X61674761Y-58257095D01*
X61674761Y-58257095D02*
X61674761Y-58352333D01*
X61674761Y-58352333D02*
X61627142Y-58447571D01*
X61627142Y-58447571D02*
X61579523Y-58495190D01*
X61579523Y-58495190D02*
X61484285Y-58542809D01*
X61484285Y-58542809D02*
X61150952Y-58542809D01*
X62008095Y-58066619D02*
X62579523Y-58066619D01*
X62293809Y-59066619D02*
X62293809Y-58066619D01*
X63341428Y-58066619D02*
X63150952Y-58066619D01*
X63150952Y-58066619D02*
X63055714Y-58114238D01*
X63055714Y-58114238D02*
X63008095Y-58161857D01*
X63008095Y-58161857D02*
X62912857Y-58304714D01*
X62912857Y-58304714D02*
X62865238Y-58495190D01*
X62865238Y-58495190D02*
X62865238Y-58876142D01*
X62865238Y-58876142D02*
X62912857Y-58971380D01*
X62912857Y-58971380D02*
X62960476Y-59019000D01*
X62960476Y-59019000D02*
X63055714Y-59066619D01*
X63055714Y-59066619D02*
X63246190Y-59066619D01*
X63246190Y-59066619D02*
X63341428Y-59019000D01*
X63341428Y-59019000D02*
X63389047Y-58971380D01*
X63389047Y-58971380D02*
X63436666Y-58876142D01*
X63436666Y-58876142D02*
X63436666Y-58638047D01*
X63436666Y-58638047D02*
X63389047Y-58542809D01*
X63389047Y-58542809D02*
X63341428Y-58495190D01*
X63341428Y-58495190D02*
X63246190Y-58447571D01*
X63246190Y-58447571D02*
X63055714Y-58447571D01*
X63055714Y-58447571D02*
X62960476Y-58495190D01*
X62960476Y-58495190D02*
X62912857Y-58542809D01*
X62912857Y-58542809D02*
X62865238Y-58638047D01*
%TO.C,BT5*%
X61484285Y-35832809D02*
X61627142Y-35880428D01*
X61627142Y-35880428D02*
X61674761Y-35928047D01*
X61674761Y-35928047D02*
X61722380Y-36023285D01*
X61722380Y-36023285D02*
X61722380Y-36166142D01*
X61722380Y-36166142D02*
X61674761Y-36261380D01*
X61674761Y-36261380D02*
X61627142Y-36309000D01*
X61627142Y-36309000D02*
X61531904Y-36356619D01*
X61531904Y-36356619D02*
X61150952Y-36356619D01*
X61150952Y-36356619D02*
X61150952Y-35356619D01*
X61150952Y-35356619D02*
X61484285Y-35356619D01*
X61484285Y-35356619D02*
X61579523Y-35404238D01*
X61579523Y-35404238D02*
X61627142Y-35451857D01*
X61627142Y-35451857D02*
X61674761Y-35547095D01*
X61674761Y-35547095D02*
X61674761Y-35642333D01*
X61674761Y-35642333D02*
X61627142Y-35737571D01*
X61627142Y-35737571D02*
X61579523Y-35785190D01*
X61579523Y-35785190D02*
X61484285Y-35832809D01*
X61484285Y-35832809D02*
X61150952Y-35832809D01*
X62008095Y-35356619D02*
X62579523Y-35356619D01*
X62293809Y-36356619D02*
X62293809Y-35356619D01*
X63389047Y-35356619D02*
X62912857Y-35356619D01*
X62912857Y-35356619D02*
X62865238Y-35832809D01*
X62865238Y-35832809D02*
X62912857Y-35785190D01*
X62912857Y-35785190D02*
X63008095Y-35737571D01*
X63008095Y-35737571D02*
X63246190Y-35737571D01*
X63246190Y-35737571D02*
X63341428Y-35785190D01*
X63341428Y-35785190D02*
X63389047Y-35832809D01*
X63389047Y-35832809D02*
X63436666Y-35928047D01*
X63436666Y-35928047D02*
X63436666Y-36166142D01*
X63436666Y-36166142D02*
X63389047Y-36261380D01*
X63389047Y-36261380D02*
X63341428Y-36309000D01*
X63341428Y-36309000D02*
X63246190Y-36356619D01*
X63246190Y-36356619D02*
X63008095Y-36356619D01*
X63008095Y-36356619D02*
X62912857Y-36309000D01*
X62912857Y-36309000D02*
X62865238Y-36261380D01*
%TO.C,BT4*%
X61484285Y-13122809D02*
X61627142Y-13170428D01*
X61627142Y-13170428D02*
X61674761Y-13218047D01*
X61674761Y-13218047D02*
X61722380Y-13313285D01*
X61722380Y-13313285D02*
X61722380Y-13456142D01*
X61722380Y-13456142D02*
X61674761Y-13551380D01*
X61674761Y-13551380D02*
X61627142Y-13599000D01*
X61627142Y-13599000D02*
X61531904Y-13646619D01*
X61531904Y-13646619D02*
X61150952Y-13646619D01*
X61150952Y-13646619D02*
X61150952Y-12646619D01*
X61150952Y-12646619D02*
X61484285Y-12646619D01*
X61484285Y-12646619D02*
X61579523Y-12694238D01*
X61579523Y-12694238D02*
X61627142Y-12741857D01*
X61627142Y-12741857D02*
X61674761Y-12837095D01*
X61674761Y-12837095D02*
X61674761Y-12932333D01*
X61674761Y-12932333D02*
X61627142Y-13027571D01*
X61627142Y-13027571D02*
X61579523Y-13075190D01*
X61579523Y-13075190D02*
X61484285Y-13122809D01*
X61484285Y-13122809D02*
X61150952Y-13122809D01*
X62008095Y-12646619D02*
X62579523Y-12646619D01*
X62293809Y-13646619D02*
X62293809Y-12646619D01*
X63341428Y-12979952D02*
X63341428Y-13646619D01*
X63103333Y-12599000D02*
X62865238Y-13313285D01*
X62865238Y-13313285D02*
X63484285Y-13313285D01*
%TO.C,BT3*%
X63008285Y-162174809D02*
X63151142Y-162222428D01*
X63151142Y-162222428D02*
X63198761Y-162270047D01*
X63198761Y-162270047D02*
X63246380Y-162365285D01*
X63246380Y-162365285D02*
X63246380Y-162508142D01*
X63246380Y-162508142D02*
X63198761Y-162603380D01*
X63198761Y-162603380D02*
X63151142Y-162651000D01*
X63151142Y-162651000D02*
X63055904Y-162698619D01*
X63055904Y-162698619D02*
X62674952Y-162698619D01*
X62674952Y-162698619D02*
X62674952Y-161698619D01*
X62674952Y-161698619D02*
X63008285Y-161698619D01*
X63008285Y-161698619D02*
X63103523Y-161746238D01*
X63103523Y-161746238D02*
X63151142Y-161793857D01*
X63151142Y-161793857D02*
X63198761Y-161889095D01*
X63198761Y-161889095D02*
X63198761Y-161984333D01*
X63198761Y-161984333D02*
X63151142Y-162079571D01*
X63151142Y-162079571D02*
X63103523Y-162127190D01*
X63103523Y-162127190D02*
X63008285Y-162174809D01*
X63008285Y-162174809D02*
X62674952Y-162174809D01*
X63532095Y-161698619D02*
X64103523Y-161698619D01*
X63817809Y-162698619D02*
X63817809Y-161698619D01*
X64341619Y-161698619D02*
X64960666Y-161698619D01*
X64960666Y-161698619D02*
X64627333Y-162079571D01*
X64627333Y-162079571D02*
X64770190Y-162079571D01*
X64770190Y-162079571D02*
X64865428Y-162127190D01*
X64865428Y-162127190D02*
X64913047Y-162174809D01*
X64913047Y-162174809D02*
X64960666Y-162270047D01*
X64960666Y-162270047D02*
X64960666Y-162508142D01*
X64960666Y-162508142D02*
X64913047Y-162603380D01*
X64913047Y-162603380D02*
X64865428Y-162651000D01*
X64865428Y-162651000D02*
X64770190Y-162698619D01*
X64770190Y-162698619D02*
X64484476Y-162698619D01*
X64484476Y-162698619D02*
X64389238Y-162651000D01*
X64389238Y-162651000D02*
X64341619Y-162603380D01*
%TO.C,BT2*%
X63008285Y-139464809D02*
X63151142Y-139512428D01*
X63151142Y-139512428D02*
X63198761Y-139560047D01*
X63198761Y-139560047D02*
X63246380Y-139655285D01*
X63246380Y-139655285D02*
X63246380Y-139798142D01*
X63246380Y-139798142D02*
X63198761Y-139893380D01*
X63198761Y-139893380D02*
X63151142Y-139941000D01*
X63151142Y-139941000D02*
X63055904Y-139988619D01*
X63055904Y-139988619D02*
X62674952Y-139988619D01*
X62674952Y-139988619D02*
X62674952Y-138988619D01*
X62674952Y-138988619D02*
X63008285Y-138988619D01*
X63008285Y-138988619D02*
X63103523Y-139036238D01*
X63103523Y-139036238D02*
X63151142Y-139083857D01*
X63151142Y-139083857D02*
X63198761Y-139179095D01*
X63198761Y-139179095D02*
X63198761Y-139274333D01*
X63198761Y-139274333D02*
X63151142Y-139369571D01*
X63151142Y-139369571D02*
X63103523Y-139417190D01*
X63103523Y-139417190D02*
X63008285Y-139464809D01*
X63008285Y-139464809D02*
X62674952Y-139464809D01*
X63532095Y-138988619D02*
X64103523Y-138988619D01*
X63817809Y-139988619D02*
X63817809Y-138988619D01*
X64389238Y-139083857D02*
X64436857Y-139036238D01*
X64436857Y-139036238D02*
X64532095Y-138988619D01*
X64532095Y-138988619D02*
X64770190Y-138988619D01*
X64770190Y-138988619D02*
X64865428Y-139036238D01*
X64865428Y-139036238D02*
X64913047Y-139083857D01*
X64913047Y-139083857D02*
X64960666Y-139179095D01*
X64960666Y-139179095D02*
X64960666Y-139274333D01*
X64960666Y-139274333D02*
X64913047Y-139417190D01*
X64913047Y-139417190D02*
X64341619Y-139988619D01*
X64341619Y-139988619D02*
X64960666Y-139988619D01*
%TO.C,BT1*%
X143994285Y-117718809D02*
X144137142Y-117766428D01*
X144137142Y-117766428D02*
X144184761Y-117814047D01*
X144184761Y-117814047D02*
X144232380Y-117909285D01*
X144232380Y-117909285D02*
X144232380Y-118052142D01*
X144232380Y-118052142D02*
X144184761Y-118147380D01*
X144184761Y-118147380D02*
X144137142Y-118195000D01*
X144137142Y-118195000D02*
X144041904Y-118242619D01*
X144041904Y-118242619D02*
X143660952Y-118242619D01*
X143660952Y-118242619D02*
X143660952Y-117242619D01*
X143660952Y-117242619D02*
X143994285Y-117242619D01*
X143994285Y-117242619D02*
X144089523Y-117290238D01*
X144089523Y-117290238D02*
X144137142Y-117337857D01*
X144137142Y-117337857D02*
X144184761Y-117433095D01*
X144184761Y-117433095D02*
X144184761Y-117528333D01*
X144184761Y-117528333D02*
X144137142Y-117623571D01*
X144137142Y-117623571D02*
X144089523Y-117671190D01*
X144089523Y-117671190D02*
X143994285Y-117718809D01*
X143994285Y-117718809D02*
X143660952Y-117718809D01*
X144518095Y-117242619D02*
X145089523Y-117242619D01*
X144803809Y-118242619D02*
X144803809Y-117242619D01*
X145946666Y-118242619D02*
X145375238Y-118242619D01*
X145660952Y-118242619D02*
X145660952Y-117242619D01*
X145660952Y-117242619D02*
X145565714Y-117385476D01*
X145565714Y-117385476D02*
X145470476Y-117480714D01*
X145470476Y-117480714D02*
X145375238Y-117528333D01*
D11*
%TO.C,U6*%
X133717000Y-80010000D02*
X137111000Y-80010000D01*
X133717000Y-75275000D02*
X133717000Y-74870000D01*
X133717000Y-85435000D02*
X133717000Y-84744000D01*
X133717000Y-95310000D02*
X133717000Y-95030000D01*
X133717000Y-82550000D02*
X137111000Y-82550000D01*
X133717000Y-87975000D02*
X133717000Y-87284000D01*
X128476000Y-95310000D02*
X133717000Y-95310000D01*
X133717000Y-80355000D02*
X133717000Y-79664000D01*
X128476000Y-86939000D02*
X130316000Y-86939000D01*
X133717000Y-92710000D02*
X137111000Y-92710000D01*
X133717000Y-77470000D02*
X137111000Y-77470000D01*
X133717000Y-92930000D02*
X133717000Y-92364000D01*
X133717000Y-90170000D02*
X137111000Y-90170000D01*
X133717000Y-77815000D02*
X133717000Y-77124000D01*
X133717000Y-82895000D02*
X133717000Y-82204000D01*
X128476000Y-83240000D02*
X130316000Y-83240000D01*
X133717000Y-85090000D02*
X137111000Y-85090000D01*
X128476000Y-74870000D02*
X133717000Y-74870000D01*
X133717000Y-90515000D02*
X133717000Y-89824000D01*
X128476000Y-95310000D02*
X128476000Y-74870000D01*
X130316000Y-95310000D02*
X130316000Y-74870000D01*
X133717000Y-87630000D02*
X137111000Y-87630000D01*
D12*
%TO.C,U4*%
X280020000Y-145960000D02*
X280020000Y-129960000D01*
X280020000Y-118960000D02*
X280020000Y-102960000D01*
X266220000Y-101960000D02*
X266220000Y-102960000D01*
X266220000Y-102960000D02*
X266220000Y-118960000D01*
X266220000Y-118960000D02*
X266220000Y-129960000D01*
X266220000Y-129960000D02*
X266220000Y-145960000D01*
X266220000Y-145960000D02*
X266220000Y-146960000D01*
X266220000Y-146960000D02*
X265020000Y-146960000D01*
X265020000Y-146960000D02*
X265020000Y-101960000D01*
X265020000Y-101960000D02*
X266220000Y-101960000D01*
X266220000Y-145960000D02*
X280020000Y-145960000D01*
X266220000Y-102960000D02*
X280020000Y-102960000D01*
X266220000Y-129960000D02*
X280020000Y-129960000D01*
X266220000Y-118960000D02*
X280020000Y-118960000D01*
D11*
%TO.C,U3*%
X205470000Y-55705000D02*
X203470000Y-55705000D01*
D10*
X273685000Y-47752000D02*
X274447000Y-47752000D01*
X272415000Y-47498000D02*
X272669000Y-47244000D01*
X271145000Y-19812000D02*
X271145000Y-42164000D01*
X172085000Y-42164000D02*
X172085000Y-19812000D01*
X273685000Y-13462000D02*
X273685000Y-14224000D01*
X172847000Y-19050000D02*
X270383000Y-19050000D01*
X272415000Y-14478000D02*
X170815000Y-14478000D01*
X270383000Y-19050000D02*
X271145000Y-19812000D01*
X169545000Y-48514000D02*
X169545000Y-47752000D01*
X170815000Y-47498000D02*
X272415000Y-47498000D01*
X169545000Y-47752000D02*
X168783000Y-47752000D01*
X272669000Y-14732000D02*
X272415000Y-14478000D01*
X170561000Y-14732000D02*
X170815000Y-14986000D01*
X272415000Y-14986000D02*
X272669000Y-14732000D01*
X274447000Y-47752000D02*
X274447000Y-14224000D01*
X169545000Y-48514000D02*
X273685000Y-48514000D01*
D11*
X160330000Y-55345000D02*
X282610000Y-55345000D01*
D10*
X271145000Y-42164000D02*
X270383000Y-42926000D01*
X168783000Y-14224000D02*
X169545000Y-14224000D01*
X172085000Y-19812000D02*
X172847000Y-19050000D01*
X168783000Y-14224000D02*
X168783000Y-47752000D01*
X170815000Y-14986000D02*
X272415000Y-14986000D01*
X272415000Y-46990000D02*
X170815000Y-46990000D01*
X273685000Y-13462000D02*
X169545000Y-13462000D01*
X172847000Y-42926000D02*
X172085000Y-42164000D01*
X273685000Y-48514000D02*
X273685000Y-47752000D01*
D11*
X282610000Y-55345000D02*
X282610000Y-11065000D01*
X160330000Y-55345000D02*
X160330000Y-11065000D01*
D10*
X170815000Y-47498000D02*
X170561000Y-47244000D01*
X170561000Y-47244000D02*
X170815000Y-46990000D01*
D11*
X282610000Y-11065000D02*
X160330000Y-11065000D01*
D10*
X273685000Y-14224000D02*
X274447000Y-14224000D01*
X272669000Y-47244000D02*
X272415000Y-46990000D01*
X170815000Y-14478000D02*
X170561000Y-14732000D01*
X169545000Y-14224000D02*
X169545000Y-13462000D01*
X270383000Y-42926000D02*
X172847000Y-42926000D01*
%TO.C,U2*%
X217061051Y-137160000D02*
G75*
G03*
X217061051Y-137160000I-1796051J0D01*
G01*
X191661051Y-137160000D02*
G75*
G03*
X191661051Y-137160000I-1796051J0D01*
G01*
X191661051Y-85090000D02*
G75*
G03*
X191661051Y-85090000I-1796051J0D01*
G01*
X217061051Y-85090000D02*
G75*
G03*
X217061051Y-85090000I-1796051J0D01*
G01*
X217815000Y-82530000D02*
X187815000Y-82530000D01*
X187815000Y-82530000D02*
X187315000Y-82530000D01*
X187315000Y-82530000D02*
X187315000Y-139530000D01*
X187315000Y-139530000D02*
X217815000Y-139530000D01*
X217815000Y-139530000D02*
X217815000Y-82530000D01*
D13*
%TO.C,U1*%
X275590000Y-73279000D02*
X275590000Y-71120000D01*
X275590000Y-73279000D02*
G75*
G03*
X275590000Y-74549000I0J-635000D01*
G01*
X275590000Y-71120000D02*
X255270000Y-71120000D01*
X255270000Y-71120000D02*
X255270000Y-76708000D01*
X255270000Y-76708000D02*
X275590000Y-76708000D01*
X275590000Y-76708000D02*
X275590000Y-74549000D01*
D11*
%TO.C,R1*%
X167925000Y-111125000D02*
X168545000Y-111125000D01*
X167925000Y-111125000D02*
G75*
G03*
X167925000Y-111125000I-920000J0D01*
G01*
%TO.C,Q1*%
X143615000Y-112975000D02*
X147215000Y-112975000D01*
X147253478Y-112963478D02*
G75*
G03*
X145415000Y-108525000I-1838478J1838478D01*
G01*
X145415000Y-108525000D02*
G75*
G03*
X143576522Y-112963478I0J-2600000D01*
G01*
%TO.C,J4*%
X122593000Y-43702000D02*
X122593000Y-43402000D01*
X122593000Y-46022000D02*
X122593000Y-44722000D01*
X124213000Y-46022000D02*
X122593000Y-46022000D01*
X124213000Y-43402000D02*
X122593000Y-43402000D01*
X125293000Y-45722000D02*
X124213000Y-45722000D01*
X124213000Y-44702000D02*
X124213000Y-43402000D01*
X124213000Y-46022000D02*
X124213000Y-45722000D01*
%TO.C,J3*%
X142710000Y-45595000D02*
X142710000Y-45895000D01*
X142710000Y-43275000D02*
X142710000Y-44575000D01*
X141090000Y-43275000D02*
X142710000Y-43275000D01*
X141090000Y-45895000D02*
X142710000Y-45895000D01*
X140010000Y-43575000D02*
X141090000Y-43575000D01*
X141090000Y-44595000D02*
X141090000Y-45895000D01*
X141090000Y-43275000D02*
X141090000Y-43575000D01*
%TO.C,J2*%
X131960000Y-112000000D02*
X131960000Y-112300000D01*
X131960000Y-109680000D02*
X131960000Y-110980000D01*
X130340000Y-109680000D02*
X131960000Y-109680000D01*
X130340000Y-112300000D02*
X131960000Y-112300000D01*
X129260000Y-109980000D02*
X130340000Y-109980000D01*
X130340000Y-111000000D02*
X130340000Y-112300000D01*
X130340000Y-109680000D02*
X130340000Y-109980000D01*
%TO.C,J1*%
X119215000Y-111635000D02*
X119215000Y-111935000D01*
X119215000Y-109315000D02*
X119215000Y-110615000D01*
X117595000Y-109315000D02*
X119215000Y-109315000D01*
X117595000Y-111935000D02*
X119215000Y-111935000D01*
X116515000Y-109615000D02*
X117595000Y-109615000D01*
X117595000Y-110635000D02*
X117595000Y-111935000D01*
X117595000Y-109315000D02*
X117595000Y-109615000D01*
%TO.C,D1*%
X229890000Y-120940000D02*
X229890000Y-120940000D01*
X233120000Y-122060000D02*
X232720000Y-122060000D01*
X229600000Y-120940000D02*
X232720000Y-120940000D01*
X229890000Y-120810000D02*
X229890000Y-120940000D01*
X232720000Y-122060000D02*
X232720000Y-120940000D01*
X232430000Y-120810000D02*
X232430000Y-120940000D01*
X229890000Y-120810000D02*
X229890000Y-120810000D01*
X232430000Y-120810000D02*
X232430000Y-120810000D01*
X233120000Y-120940000D02*
X233120000Y-122060000D01*
X232720000Y-120940000D02*
X233120000Y-120940000D01*
X229600000Y-120940000D02*
X229600000Y-124800000D01*
X232720000Y-120940000D02*
X232720000Y-124800000D01*
X232430000Y-120940000D02*
X232430000Y-120810000D01*
X229890000Y-120940000D02*
X229890000Y-120810000D01*
X232430000Y-120940000D02*
X232430000Y-120940000D01*
X229600000Y-124800000D02*
G75*
G03*
X232720000Y-124800000I1560000J0D01*
G01*
%TO.C,BT6*%
X23630000Y-59664000D02*
X23630000Y-66664000D01*
X100910000Y-80544000D02*
X23630000Y-80544000D01*
X19770000Y-65354000D02*
X19770000Y-62854000D01*
X100910000Y-59664000D02*
X23630000Y-59664000D01*
X23630000Y-66664000D02*
X19270000Y-66664000D01*
X23630000Y-80544000D02*
X23630000Y-73544000D01*
X106020000Y-64104000D02*
X103520000Y-64104000D01*
X18520000Y-64104000D02*
X21020000Y-64104000D01*
X100910000Y-66664000D02*
X100910000Y-59684000D01*
X100910000Y-73544000D02*
X100910000Y-80544000D01*
%TO.C,BT5*%
X23630000Y-36954000D02*
X23630000Y-43954000D01*
X100910000Y-57834000D02*
X23630000Y-57834000D01*
X19770000Y-42644000D02*
X19770000Y-40144000D01*
X100910000Y-36954000D02*
X23630000Y-36954000D01*
X23630000Y-43954000D02*
X19270000Y-43954000D01*
X23630000Y-57834000D02*
X23630000Y-50834000D01*
X106020000Y-41394000D02*
X103520000Y-41394000D01*
X18520000Y-41394000D02*
X21020000Y-41394000D01*
X100910000Y-43954000D02*
X100910000Y-36974000D01*
X100910000Y-50834000D02*
X100910000Y-57834000D01*
%TO.C,BT4*%
X23630000Y-14244000D02*
X23630000Y-21244000D01*
X100910000Y-35124000D02*
X23630000Y-35124000D01*
X19770000Y-19934000D02*
X19770000Y-17434000D01*
X100910000Y-14244000D02*
X23630000Y-14244000D01*
X23630000Y-21244000D02*
X19270000Y-21244000D01*
X23630000Y-35124000D02*
X23630000Y-28124000D01*
X106020000Y-18684000D02*
X103520000Y-18684000D01*
X18520000Y-18684000D02*
X21020000Y-18684000D01*
X100910000Y-21244000D02*
X100910000Y-14264000D01*
X100910000Y-28124000D02*
X100910000Y-35124000D01*
%TO.C,BT3*%
X102434000Y-177176000D02*
X102434000Y-184176000D01*
X102434000Y-170296000D02*
X102434000Y-163316000D01*
X20044000Y-167736000D02*
X22544000Y-167736000D01*
X107544000Y-167736000D02*
X105044000Y-167736000D01*
X25154000Y-184176000D02*
X25154000Y-177176000D01*
X25154000Y-170296000D02*
X20794000Y-170296000D01*
X102434000Y-163296000D02*
X25154000Y-163296000D01*
X21294000Y-168986000D02*
X21294000Y-166486000D01*
X102434000Y-184176000D02*
X25154000Y-184176000D01*
X25154000Y-163296000D02*
X25154000Y-170296000D01*
%TO.C,BT2*%
X25154000Y-140586000D02*
X25154000Y-147586000D01*
X102434000Y-161466000D02*
X25154000Y-161466000D01*
X21294000Y-146276000D02*
X21294000Y-143776000D01*
X102434000Y-140586000D02*
X25154000Y-140586000D01*
X25154000Y-147586000D02*
X20794000Y-147586000D01*
X25154000Y-161466000D02*
X25154000Y-154466000D01*
X107544000Y-145026000D02*
X105044000Y-145026000D01*
X20044000Y-145026000D02*
X22544000Y-145026000D01*
X102434000Y-147586000D02*
X102434000Y-140606000D01*
X102434000Y-154466000D02*
X102434000Y-161466000D01*
%TO.C,BT1*%
X172010000Y-120460000D02*
X172010000Y-150660000D01*
X172010000Y-150660000D02*
X117510000Y-150660000D01*
X117510000Y-120460000D02*
X172010000Y-120460000D01*
X117510000Y-150660000D02*
X117510000Y-120460000D01*
%TD*%
D14*
%TO.C,U2*%
X188595000Y-92710000D03*
X188595000Y-95250000D03*
X188595000Y-97790000D03*
X188595000Y-100330000D03*
X188595000Y-102870000D03*
X188595000Y-105410000D03*
X188595000Y-107950000D03*
X188595000Y-110490000D03*
X188595000Y-113030000D03*
X188595000Y-115570000D03*
X188595000Y-118110000D03*
X188595000Y-120650000D03*
X188595000Y-123190000D03*
X188595000Y-125730000D03*
X188595000Y-128270000D03*
X216535000Y-128270000D03*
X216535000Y-125730000D03*
X216535000Y-123190000D03*
X216535000Y-120650000D03*
X216535000Y-118110000D03*
X216535000Y-115570000D03*
X216535000Y-113030000D03*
X216535000Y-110490000D03*
X216535000Y-107950000D03*
X216535000Y-105410000D03*
X216535000Y-102870000D03*
X216535000Y-100330000D03*
X216535000Y-97790000D03*
X216535000Y-95250000D03*
X216535000Y-92710000D03*
%TD*%
M02*
