%TF.GenerationSoftware,KiCad,Pcbnew,7.0.2-0*%
%TF.CreationDate,2023-05-03T08:41:48+07:00*%
%TF.ProjectId,robot1,726f626f-7431-42e6-9b69-6361645f7063,rev?*%
%TF.SameCoordinates,Original*%
%TF.FileFunction,Copper,L2,Bot*%
%TF.FilePolarity,Positive*%
%FSLAX46Y46*%
G04 Gerber Fmt 4.6, Leading zero omitted, Abs format (unit mm)*
G04 Created by KiCad (PCBNEW 7.0.2-0) date 2023-05-03 08:41:48*
%MOMM*%
%LPD*%
G01*
G04 APERTURE LIST*
%TA.AperFunction,ComponentPad*%
%ADD10O,1.800000X1.800000*%
%TD*%
%TA.AperFunction,ComponentPad*%
%ADD11R,1.800000X1.800000*%
%TD*%
%TA.AperFunction,ComponentPad*%
%ADD12C,1.530000*%
%TD*%
%TA.AperFunction,ComponentPad*%
%ADD13C,6.500000*%
%TD*%
%TA.AperFunction,ComponentPad*%
%ADD14R,1.500000X3.000000*%
%TD*%
%TA.AperFunction,ComponentPad*%
%ADD15O,1.500000X3.000000*%
%TD*%
%TA.AperFunction,ComponentPad*%
%ADD16R,2.000000X2.000000*%
%TD*%
%TA.AperFunction,ComponentPad*%
%ADD17C,1.524000*%
%TD*%
%TA.AperFunction,ComponentPad*%
%ADD18O,1.320800X2.641600*%
%TD*%
%TA.AperFunction,ComponentPad*%
%ADD19C,1.400000*%
%TD*%
%TA.AperFunction,ComponentPad*%
%ADD20O,1.400000X1.400000*%
%TD*%
%TA.AperFunction,ComponentPad*%
%ADD21R,1.050000X1.500000*%
%TD*%
%TA.AperFunction,ComponentPad*%
%ADD22O,1.050000X1.500000*%
%TD*%
%TA.AperFunction,ComponentPad*%
%ADD23C,1.800000*%
%TD*%
%TA.AperFunction,ComponentPad*%
%ADD24R,3.000000X3.000000*%
%TD*%
%TA.AperFunction,ComponentPad*%
%ADD25C,3.000000*%
%TD*%
%TA.AperFunction,ViaPad*%
%ADD26C,0.800000*%
%TD*%
%TA.AperFunction,Conductor*%
%ADD27C,0.250000*%
%TD*%
G04 APERTURE END LIST*
D10*
%TO.P,U6,15,SENSE_B*%
%TO.N,unconnected-(U6-SENSE_B-Pad15)*%
X133096000Y-76200000D03*
%TO.P,U6,14,OUT4*%
%TO.N,Net-(J4-Pin_1)*%
X138176000Y-77470000D03*
%TO.P,U6,13,OUT3*%
%TO.N,Net-(J4-Pin_2)*%
X133096000Y-78740000D03*
%TO.P,U6,12,IN4*%
%TO.N,Net-(U2-RX(DPIO3))*%
X138176000Y-80010000D03*
%TO.P,U6,11,ENB*%
%TO.N,Net-(U2-D8(GPIO15))*%
X133096000Y-81280000D03*
%TO.P,U6,10,IN3*%
%TO.N,Net-(U2-TX(GPIO1))*%
X138176000Y-82550000D03*
%TO.P,U6,9,VSS*%
%TO.N,Net-(U6-VSS)*%
X133096000Y-83820000D03*
%TO.P,U6,8,GND*%
%TO.N,Net-(BT6--)*%
X138176000Y-85090000D03*
%TO.P,U6,7,IN2*%
%TO.N,Net-(U2-D0(GPIO16))*%
X133096000Y-86360000D03*
%TO.P,U6,6,ENA*%
%TO.N,Net-(U2-D6(GPIO12))*%
X138176000Y-87630000D03*
%TO.P,U6,5,IN1*%
%TO.N,Net-(U2-SD3(GPIO10))*%
X133096000Y-88900000D03*
%TO.P,U6,4,VS*%
%TO.N,Net-(BT4-+)*%
X138176000Y-90170000D03*
%TO.P,U6,3,OUT2*%
%TO.N,Net-(J3-Pin_1)*%
X133096000Y-91440000D03*
%TO.P,U6,2,OUT1*%
%TO.N,Net-(J3-Pin_2)*%
X138176000Y-92710000D03*
D11*
%TO.P,U6,1,SENSE_A*%
%TO.N,unconnected-(U6-SENSE_A-Pad1)*%
X133096000Y-93980000D03*
%TD*%
D12*
%TO.P,U4,2,TRIG*%
%TO.N,Net-(U2-D4(GPIO2))*%
X260750000Y-125730000D03*
%TO.P,U4,3,ECHO*%
%TO.N,Net-(U2-D3(GPIO0))*%
X260750000Y-123190000D03*
%TO.P,U4,4,GND*%
%TO.N,Net-(D1-K)*%
X260750000Y-120650000D03*
%TO.P,U4,1,VCC*%
%TO.N,Net-(U4-VCC)*%
X260750000Y-128270000D03*
%TD*%
D13*
%TO.P,U3,*%
%TO.N,*%
X163970000Y-51705000D03*
X163970000Y-14705000D03*
X278970000Y-14705000D03*
X278970000Y-51705000D03*
D14*
%TO.P,U3,1,VSS*%
%TO.N,unconnected-(U3-VSS-Pad1)*%
X204470000Y-52705000D03*
D15*
%TO.P,U3,2,VDD*%
%TO.N,unconnected-(U3-VDD-Pad2)*%
X201930000Y-52705000D03*
%TO.P,U3,3,VO*%
%TO.N,unconnected-(U3-VO-Pad3)*%
X199390000Y-52705000D03*
%TO.P,U3,4,RS*%
%TO.N,Net-(U1-P0)*%
X196850000Y-52705000D03*
%TO.P,U3,5,R/~{W}*%
%TO.N,Net-(U1-P1)*%
X194310000Y-52705000D03*
%TO.P,U3,6,E*%
%TO.N,Net-(U1-P2)*%
X191770000Y-52705000D03*
%TO.P,U3,7,DB0*%
%TO.N,unconnected-(U3-DB0-Pad7)*%
X189230000Y-52705000D03*
%TO.P,U3,8,DB1*%
%TO.N,unconnected-(U3-DB1-Pad8)*%
X186690000Y-52705000D03*
%TO.P,U3,9,DB2*%
%TO.N,unconnected-(U3-DB2-Pad9)*%
X184150000Y-52705000D03*
%TO.P,U3,10,DB3*%
%TO.N,unconnected-(U3-DB3-Pad10)*%
X181610000Y-52705000D03*
%TO.P,U3,11,DB4*%
%TO.N,Net-(U1-P4)*%
X179070000Y-52705000D03*
%TO.P,U3,12,DB5*%
%TO.N,Net-(U1-P5)*%
X176530000Y-52705000D03*
%TO.P,U3,13,DB6*%
%TO.N,Net-(U1-P6)*%
X173990000Y-52705000D03*
%TO.P,U3,14,DB7*%
%TO.N,Net-(U1-P7)*%
X171450000Y-52705000D03*
%TO.P,U3,15,A/VEE*%
%TO.N,unconnected-(U3-A{slash}VEE-Pad15)*%
X207010000Y-52705000D03*
%TO.P,U3,16,K*%
%TO.N,unconnected-(U3-K-Pad16)*%
X209550000Y-52705000D03*
D16*
%TO.P,U3,A1,A1*%
%TO.N,unconnected-(U3-PadA1)*%
X279970000Y-38705000D03*
%TO.P,U3,A2,A2*%
%TO.N,unconnected-(U3-PadA2)*%
X279970000Y-27705000D03*
%TO.P,U3,K1,K1*%
%TO.N,unconnected-(U3-PadK1)*%
X279970000Y-34705000D03*
%TO.P,U3,K2,K2*%
%TO.N,unconnected-(U3-PadK2)*%
X279970000Y-23705000D03*
%TD*%
D17*
%TO.P,U2,1,A0(ADC0)*%
%TO.N,unconnected-(U2-A0(ADC0)-Pad1)*%
X188595000Y-92710000D03*
%TO.P,U2,2,RSV*%
%TO.N,unconnected-(U2-RSV-Pad2)*%
X188595000Y-95250000D03*
%TO.P,U2,3,RSV*%
%TO.N,unconnected-(U2-RSV-Pad3)*%
X188595000Y-97790000D03*
%TO.P,U2,4,SD3(GPIO10)*%
%TO.N,Net-(U2-SD3(GPIO10))*%
X188595000Y-100330000D03*
%TO.P,U2,5,SD2(GPIO9)*%
%TO.N,unconnected-(U2-SD2(GPIO9)-Pad5)*%
X188595000Y-102870000D03*
%TO.P,U2,6,SD1(MOSI)*%
%TO.N,unconnected-(U2-SD1(MOSI)-Pad6)*%
X188595000Y-105410000D03*
%TO.P,U2,7,CMD(CS)*%
%TO.N,unconnected-(U2-CMD(CS)-Pad7)*%
X188595000Y-107950000D03*
%TO.P,U2,8,SDO(MISO)*%
%TO.N,unconnected-(U2-SDO(MISO)-Pad8)*%
X188595000Y-110490000D03*
%TO.P,U2,9,CLK(SCLK)*%
%TO.N,unconnected-(U2-CLK(SCLK)-Pad9)*%
X188595000Y-113030000D03*
%TO.P,U2,10,GND*%
%TO.N,Net-(BT6--)*%
X188595000Y-115570000D03*
%TO.P,U2,11,3.3V*%
%TO.N,Net-(U6-VSS)*%
X188595000Y-118110000D03*
%TO.P,U2,12,EN*%
%TO.N,unconnected-(U2-EN-Pad12)*%
X188595000Y-120650000D03*
%TO.P,U2,13,RST*%
%TO.N,unconnected-(U2-RST-Pad13)*%
X188595000Y-123190000D03*
%TO.P,U2,14,GND*%
%TO.N,Net-(BT1--)*%
X188595000Y-125730000D03*
%TO.P,U2,15,VIN*%
%TO.N,Net-(BT1-+)*%
X188595000Y-128270000D03*
%TO.P,U2,16,3.3V*%
%TO.N,Net-(U4-VCC)*%
X216535000Y-128270000D03*
%TO.P,U2,17,GND*%
%TO.N,Net-(D1-K)*%
X216535000Y-125730000D03*
%TO.P,U2,18,TX(GPIO1)*%
%TO.N,Net-(U2-TX(GPIO1))*%
X216535000Y-123190000D03*
%TO.P,U2,19,RX(DPIO3)*%
%TO.N,Net-(U2-RX(DPIO3))*%
X216535000Y-120650000D03*
%TO.P,U2,20,D8(GPIO15)*%
%TO.N,Net-(U2-D8(GPIO15))*%
X216535000Y-118110000D03*
%TO.P,U2,21,D7(GPIO13)*%
%TO.N,Net-(D1-A)*%
X216535000Y-115570000D03*
%TO.P,U2,22,D6(GPIO12)*%
%TO.N,Net-(U2-D6(GPIO12))*%
X216535000Y-113030000D03*
%TO.P,U2,23,D5(GPIO14)*%
%TO.N,Net-(U2-D5(GPIO14))*%
X216535000Y-110490000D03*
%TO.P,U2,24,GND*%
%TO.N,Net-(U1-A0)*%
X216535000Y-107950000D03*
%TO.P,U2,25,3.3V*%
%TO.N,Net-(U1-VDD)*%
X216535000Y-105410000D03*
%TO.P,U2,26,D4(GPIO2)*%
%TO.N,Net-(U2-D4(GPIO2))*%
X216535000Y-102870000D03*
%TO.P,U2,27,D3(GPIO0)*%
%TO.N,Net-(U2-D3(GPIO0))*%
X216535000Y-100330000D03*
%TO.P,U2,28,D2(GPIO4)*%
%TO.N,Net-(U1-SDA)*%
X216535000Y-97790000D03*
%TO.P,U2,29,D1(GPIO5)*%
%TO.N,Net-(U1-SCL)*%
X216535000Y-95250000D03*
%TO.P,U2,30,D0(GPIO16)*%
%TO.N,Net-(U2-D0(GPIO16))*%
X216535000Y-92710000D03*
%TD*%
D18*
%TO.P,U1,1,A0*%
%TO.N,Net-(U1-A0)*%
X274320000Y-70104000D03*
%TO.P,U1,2,A1*%
X271780000Y-70104000D03*
%TO.P,U1,3,A2*%
X269240000Y-70104000D03*
%TO.P,U1,4,P0*%
%TO.N,Net-(U1-P0)*%
X266700000Y-70104000D03*
%TO.P,U1,5,P1*%
%TO.N,Net-(U1-P1)*%
X264160000Y-70104000D03*
%TO.P,U1,6,P2*%
%TO.N,Net-(U1-P2)*%
X261620000Y-70104000D03*
%TO.P,U1,7,P3*%
%TO.N,unconnected-(U1-P3-Pad7)*%
X259080000Y-70104000D03*
%TO.P,U1,8,VSS*%
%TO.N,unconnected-(U1-VSS-Pad8)*%
X256540000Y-70104000D03*
%TO.P,U1,9,P4*%
%TO.N,Net-(U1-P4)*%
X256540000Y-77724000D03*
%TO.P,U1,10,P5*%
%TO.N,Net-(U1-P5)*%
X259080000Y-77724000D03*
%TO.P,U1,11,P6*%
%TO.N,Net-(U1-P6)*%
X261620000Y-77724000D03*
%TO.P,U1,12,P7*%
%TO.N,Net-(U1-P7)*%
X264160000Y-77724000D03*
%TO.P,U1,13,~{INT}*%
%TO.N,unconnected-(U1-~{INT}-Pad13)*%
X266700000Y-77724000D03*
%TO.P,U1,14,SCL*%
%TO.N,Net-(U1-SCL)*%
X269240000Y-77724000D03*
%TO.P,U1,15,SDA*%
%TO.N,Net-(U1-SDA)*%
X271780000Y-77724000D03*
%TO.P,U1,16,VDD*%
%TO.N,Net-(U1-VDD)*%
X274320000Y-77724000D03*
%TD*%
D19*
%TO.P,R1,1*%
%TO.N,Net-(U2-D5(GPIO14))*%
X167005000Y-111125000D03*
D20*
%TO.P,R1,2*%
%TO.N,Net-(Q1-B)*%
X169545000Y-111125000D03*
%TD*%
D21*
%TO.P,Q1,1,C*%
%TO.N,Net-(J2-Pin_1)*%
X144145000Y-111125000D03*
D22*
%TO.P,Q1,2,B*%
%TO.N,Net-(Q1-B)*%
X145415000Y-111125000D03*
%TO.P,Q1,3,E*%
%TO.N,Net-(BT3--)*%
X146685000Y-111125000D03*
%TD*%
D11*
%TO.P,D1,1,K*%
%TO.N,Net-(D1-K)*%
X229890000Y-119730000D03*
D23*
%TO.P,D1,2,A*%
%TO.N,Net-(D1-A)*%
X232430000Y-119730000D03*
%TD*%
D24*
%TO.P,BT1,1,+*%
%TO.N,Net-(BT1-+)*%
X168910000Y-141910000D03*
D25*
%TO.P,BT1,2,-*%
%TO.N,Net-(BT1--)*%
X168910000Y-129210000D03*
%TD*%
D26*
%TO.N,Net-(U2-D6(GPIO12))*%
X153416000Y-87376000D03*
X163576000Y-89916000D03*
%TO.N,Net-(U2-D8(GPIO15))*%
X146304000Y-92964000D03*
%TO.N,Net-(U2-D4(GPIO2))*%
X233172000Y-111760000D03*
%TO.N,Net-(U2-D3(GPIO0))*%
X235204000Y-111252000D03*
%TO.N,Net-(U2-D4(GPIO2))*%
X221996000Y-100076000D03*
%TO.N,Net-(U2-D3(GPIO0))*%
X224028000Y-96012000D03*
%TO.N,Net-(U2-D0(GPIO16))*%
X142748000Y-78740000D03*
%TO.N,Net-(U2-RX(DPIO3))*%
X145288000Y-92964000D03*
%TO.N,Net-(U2-TX(GPIO1))*%
X144272000Y-92964000D03*
%TO.N,Net-(U6-VSS)*%
X130048000Y-98552000D03*
%TO.N,Net-(U2-D5(GPIO14))*%
X198120000Y-121920000D03*
%TO.N,Net-(J3-Pin_2)*%
X127000000Y-74168000D03*
X132080000Y-69088000D03*
%TO.N,Net-(J3-Pin_1)*%
X131064000Y-67564000D03*
%TO.N,Net-(J3-Pin_2)*%
X138176000Y-47244000D03*
%TO.N,Net-(J3-Pin_1)*%
X136652000Y-46736000D03*
%TO.N,Net-(J4-Pin_1)*%
X120396000Y-47244000D03*
%TO.N,Net-(J4-Pin_2)*%
X116840000Y-46736000D03*
%TO.N,Net-(BT4-+)*%
X127000000Y-97028000D03*
%TO.N,Net-(BT2-+)*%
X114300000Y-110236000D03*
X36068000Y-136144000D03*
%TO.N,Net-(BT3--)*%
X110744000Y-156464000D03*
%TO.N,Net-(D1-K)*%
X246888000Y-120396000D03*
%TO.N,Net-(U1-P4)*%
X236220000Y-83820000D03*
%TO.N,Net-(U1-P5)*%
X234696000Y-85344000D03*
%TO.N,Net-(U1-P6)*%
X232664000Y-86868000D03*
%TO.N,Net-(U1-P7)*%
X230632000Y-87884000D03*
X235204000Y-90932000D03*
%TO.N,Net-(U1-P6)*%
X237744000Y-88900000D03*
%TO.N,Net-(U1-P5)*%
X240284000Y-86868000D03*
%TO.N,Net-(U1-P4)*%
X241808000Y-84836000D03*
%TO.N,Net-(U1-SDA)*%
X220472000Y-107696000D03*
%TO.N,Net-(U1-SCL)*%
X219964000Y-105664000D03*
%TD*%
D27*
%TO.N,Net-(U2-D6(GPIO12))*%
X138176000Y-87630000D02*
X153162000Y-87630000D01*
X153162000Y-87630000D02*
X153416000Y-87376000D01*
X179324000Y-105664000D02*
X163576000Y-89916000D01*
X198374000Y-113030000D02*
X192532000Y-107188000D01*
X216535000Y-113030000D02*
X198374000Y-113030000D01*
X192532000Y-107188000D02*
X191841000Y-106497000D01*
X191841000Y-106497000D02*
X180157000Y-106497000D01*
X180157000Y-106497000D02*
X179324000Y-105664000D01*
%TO.N,Net-(U2-SD3(GPIO10))*%
X188595000Y-100330000D02*
X177165000Y-88900000D01*
X177165000Y-88900000D02*
X133096000Y-88900000D01*
%TO.N,Net-(U2-D8(GPIO15))*%
X168656000Y-100584000D02*
X151892000Y-100584000D01*
X178633000Y-109037000D02*
X178308000Y-108712000D01*
X194564000Y-110744000D02*
X192857000Y-109037000D01*
X146304000Y-96012000D02*
X146304000Y-92964000D01*
X216535000Y-118110000D02*
X201930000Y-118110000D01*
X201930000Y-118110000D02*
X194564000Y-110744000D01*
X192857000Y-109037000D02*
X178633000Y-109037000D01*
X178308000Y-108712000D02*
X170180000Y-100584000D01*
X170180000Y-100584000D02*
X168656000Y-100584000D01*
X151892000Y-100584000D02*
X150876000Y-100584000D01*
X150876000Y-100584000D02*
X146304000Y-96012000D01*
%TO.N,Net-(U2-D4(GPIO2))*%
X233172000Y-111760000D02*
X233426000Y-112014000D01*
X219202000Y-102870000D02*
X221996000Y-100076000D01*
X216535000Y-102870000D02*
X219202000Y-102870000D01*
%TO.N,Net-(U2-D3(GPIO0))*%
X216535000Y-100330000D02*
X219710000Y-100330000D01*
X219710000Y-100330000D02*
X224028000Y-96012000D01*
%TO.N,Net-(U2-D0(GPIO16))*%
X142748000Y-78740000D02*
X202565000Y-78740000D01*
X202565000Y-78740000D02*
X216535000Y-92710000D01*
%TO.N,Net-(U2-RX(DPIO3))*%
X145288000Y-92964000D02*
X145288000Y-93472000D01*
X145288000Y-96520000D02*
X145288000Y-92964000D01*
X201422000Y-120650000D02*
X200152000Y-119380000D01*
X177983000Y-111943000D02*
X177800000Y-111760000D01*
X193040000Y-112268000D02*
X189992000Y-112268000D01*
X167640000Y-102108000D02*
X150876000Y-102108000D01*
X150876000Y-102108000D02*
X145288000Y-96520000D01*
X200152000Y-119380000D02*
X193040000Y-112268000D01*
X177800000Y-111760000D02*
X168148000Y-102108000D01*
X216535000Y-120650000D02*
X201422000Y-120650000D01*
X189667000Y-111943000D02*
X177983000Y-111943000D01*
X189992000Y-112268000D02*
X189667000Y-111943000D01*
X168148000Y-102108000D02*
X167640000Y-102108000D01*
%TO.N,Net-(U2-TX(GPIO1))*%
X177617000Y-114117000D02*
X176784000Y-113284000D01*
X192349000Y-114117000D02*
X177617000Y-114117000D01*
X198120000Y-119888000D02*
X192349000Y-114117000D01*
X150876000Y-104140000D02*
X144272000Y-97536000D01*
X144272000Y-97536000D02*
X144272000Y-92964000D01*
X167640000Y-104140000D02*
X150876000Y-104140000D01*
X216535000Y-123190000D02*
X201422000Y-123190000D01*
X201422000Y-123190000D02*
X198120000Y-119888000D01*
X176784000Y-113284000D02*
X167640000Y-104140000D01*
%TO.N,Net-(U6-VSS)*%
X137668000Y-106172000D02*
X130048000Y-98552000D01*
X167640000Y-106172000D02*
X160528000Y-106172000D01*
X160528000Y-106172000D02*
X137668000Y-106172000D01*
X188595000Y-118110000D02*
X179578000Y-118110000D01*
X179578000Y-118110000D02*
X170180000Y-108712000D01*
X170180000Y-108712000D02*
X167640000Y-106172000D01*
%TO.N,Net-(U2-D5(GPIO14))*%
X177800000Y-121920000D02*
X198120000Y-121920000D01*
X167005000Y-111125000D02*
X177800000Y-121920000D01*
%TO.N,Net-(Q1-B)*%
X145415000Y-111125000D02*
X145415000Y-110617000D01*
X168529000Y-111125000D02*
X169545000Y-111125000D01*
X145415000Y-110617000D02*
X148336000Y-107696000D01*
X148336000Y-107696000D02*
X165100000Y-107696000D01*
X165100000Y-107696000D02*
X168529000Y-111125000D01*
%TO.N,Net-(BT4-+)*%
X127000000Y-97028000D02*
X138684000Y-97028000D01*
X140716000Y-92710000D02*
X138176000Y-90170000D01*
X138684000Y-97028000D02*
X140716000Y-94996000D01*
X140716000Y-94996000D02*
X140716000Y-92710000D01*
%TO.N,Net-(J3-Pin_2)*%
X127000000Y-74168000D02*
X127000000Y-93472000D01*
X127000000Y-93472000D02*
X129540000Y-96012000D01*
X129540000Y-96012000D02*
X136652000Y-96012000D01*
X136652000Y-96012000D02*
X138176000Y-94488000D01*
X138176000Y-94488000D02*
X138176000Y-92710000D01*
X133604000Y-67564000D02*
X132080000Y-69088000D01*
%TO.N,Net-(J3-Pin_1)*%
X136652000Y-61976000D02*
X131064000Y-67564000D01*
X136652000Y-46736000D02*
X136652000Y-61976000D01*
%TO.N,Net-(J3-Pin_2)*%
X138176000Y-62992000D02*
X133604000Y-67564000D01*
X138176000Y-47244000D02*
X138176000Y-62992000D01*
%TO.N,Net-(J4-Pin_2)*%
X133096000Y-78740000D02*
X125476000Y-71120000D01*
X125476000Y-71120000D02*
X125476000Y-58928000D01*
X125476000Y-58928000D02*
X116840000Y-50292000D01*
X116840000Y-50292000D02*
X116840000Y-46736000D01*
%TO.N,Net-(J4-Pin_1)*%
X128016000Y-58420000D02*
X120396000Y-50800000D01*
X128016000Y-67564000D02*
X128016000Y-58420000D01*
X138176000Y-77470000D02*
X128270000Y-67564000D01*
X120396000Y-50800000D02*
X120396000Y-47244000D01*
X128270000Y-67564000D02*
X128016000Y-67564000D01*
%TO.N,Net-(BT1-+)*%
X168910000Y-141910000D02*
X174955000Y-141910000D01*
X174955000Y-141910000D02*
X188595000Y-128270000D01*
%TO.N,Net-(BT1--)*%
X168910000Y-129210000D02*
X185115000Y-129210000D01*
X185115000Y-129210000D02*
X188595000Y-125730000D01*
%TO.N,Net-(BT2-+)*%
X84836000Y-114808000D02*
X109728000Y-114808000D01*
X109728000Y-114808000D02*
X114300000Y-110236000D01*
X63500000Y-136144000D02*
X84836000Y-114808000D01*
X36068000Y-136144000D02*
X63500000Y-136144000D01*
%TO.N,Net-(BT3--)*%
X110744000Y-156464000D02*
X146685000Y-120523000D01*
X146685000Y-120523000D02*
X146685000Y-111125000D01*
%TO.N,Net-(D1-K)*%
X247904000Y-120396000D02*
X246888000Y-120396000D01*
X248158000Y-120650000D02*
X247904000Y-120396000D01*
%TO.N,Net-(D1-A)*%
X216535000Y-115570000D02*
X228270000Y-115570000D01*
X228270000Y-115570000D02*
X232430000Y-119730000D01*
%TO.N,Net-(D1-K)*%
X260750000Y-120650000D02*
X248158000Y-120650000D01*
%TO.N,Net-(U2-D3(GPIO0))*%
X247142000Y-123190000D02*
X235204000Y-111252000D01*
X260750000Y-123190000D02*
X247142000Y-123190000D01*
%TO.N,Net-(U2-D4(GPIO2))*%
X260750000Y-125730000D02*
X247142000Y-125730000D01*
X247142000Y-125730000D02*
X233172000Y-111760000D01*
%TO.N,Net-(D1-K)*%
X216535000Y-125730000D02*
X223890000Y-125730000D01*
X223890000Y-125730000D02*
X229890000Y-119730000D01*
%TO.N,Net-(U4-VCC)*%
X216535000Y-128270000D02*
X260750000Y-128270000D01*
%TO.N,Net-(U1-P7)*%
X230632000Y-87884000D02*
X206248000Y-63500000D01*
X206248000Y-63500000D02*
X181356000Y-63500000D01*
X181356000Y-63500000D02*
X171450000Y-53594000D01*
X171450000Y-53594000D02*
X171450000Y-52705000D01*
%TO.N,Net-(U1-P6)*%
X207772000Y-61976000D02*
X182372000Y-61976000D01*
X232664000Y-86868000D02*
X207772000Y-61976000D01*
X182372000Y-61976000D02*
X173990000Y-53594000D01*
X173990000Y-53594000D02*
X173990000Y-52705000D01*
%TO.N,Net-(U1-P5)*%
X234696000Y-85344000D02*
X209804000Y-60452000D01*
X176530000Y-53594000D02*
X176530000Y-52705000D01*
X209804000Y-60452000D02*
X183388000Y-60452000D01*
X183388000Y-60452000D02*
X176530000Y-53594000D01*
%TO.N,Net-(U1-P4)*%
X236220000Y-83820000D02*
X211836000Y-59436000D01*
X211836000Y-59436000D02*
X185801000Y-59436000D01*
X185801000Y-59436000D02*
X179070000Y-52705000D01*
X248920000Y-84836000D02*
X241808000Y-84836000D01*
X256540000Y-77724000D02*
X249428000Y-84836000D01*
X249428000Y-84836000D02*
X248920000Y-84836000D01*
%TO.N,Net-(U1-P5)*%
X249936000Y-86868000D02*
X240284000Y-86868000D01*
X259080000Y-77724000D02*
X249936000Y-86868000D01*
%TO.N,Net-(U1-P6)*%
X250444000Y-88900000D02*
X237744000Y-88900000D01*
X261620000Y-77724000D02*
X250444000Y-88900000D01*
%TO.N,Net-(U1-P7)*%
X264160000Y-77724000D02*
X250952000Y-90932000D01*
X249428000Y-90932000D02*
X235204000Y-90932000D01*
X250952000Y-90932000D02*
X249428000Y-90932000D01*
%TO.N,Net-(U1-VDD)*%
X215448000Y-106497000D02*
X216535000Y-105410000D01*
X215448000Y-108400000D02*
X215448000Y-106497000D01*
X216085000Y-109037000D02*
X215448000Y-108400000D01*
X243007000Y-109037000D02*
X216085000Y-109037000D01*
X274320000Y-77724000D02*
X243007000Y-109037000D01*
%TO.N,Net-(U1-SDA)*%
X242316000Y-107696000D02*
X220472000Y-107696000D01*
X271780000Y-78232000D02*
X242316000Y-107696000D01*
X271780000Y-77724000D02*
X271780000Y-78232000D01*
%TO.N,Net-(U1-SCL)*%
X220472000Y-106172000D02*
X219964000Y-105664000D01*
X240792000Y-106172000D02*
X220472000Y-106172000D01*
X269240000Y-77724000D02*
X240792000Y-106172000D01*
%TO.N,Net-(U1-P2)*%
X196977000Y-57912000D02*
X191770000Y-52705000D01*
X249428000Y-57912000D02*
X196977000Y-57912000D01*
X261620000Y-70104000D02*
X249428000Y-57912000D01*
%TO.N,Net-(U1-P1)*%
X198501000Y-56896000D02*
X194310000Y-52705000D01*
X250952000Y-56896000D02*
X198501000Y-56896000D01*
X264160000Y-70104000D02*
X250952000Y-56896000D01*
%TO.N,Net-(U1-P0)*%
X200025000Y-55880000D02*
X196850000Y-52705000D01*
X252476000Y-55880000D02*
X200025000Y-55880000D01*
X266700000Y-70104000D02*
X252476000Y-55880000D01*
%TO.N,Net-(U1-A0)*%
X252735000Y-71749800D02*
X216535000Y-107950000D01*
X267594000Y-71749800D02*
X252735000Y-71749800D01*
X269240000Y-70104000D02*
X267594000Y-71749800D01*
X271780000Y-70104000D02*
X271780000Y-67056000D01*
X272796000Y-67056000D02*
X271780000Y-67056000D01*
X274320000Y-68580000D02*
X272796000Y-67056000D01*
X274320000Y-70104000D02*
X274320000Y-68580000D01*
X269240000Y-68072000D02*
X269240000Y-70104000D01*
X270256000Y-67056000D02*
X269240000Y-68072000D01*
X271780000Y-67056000D02*
X270256000Y-67056000D01*
%TD*%
M02*
